<svg width="23" height="22" viewBox="0 0 23 22" fill="none" xmlns="http://www.w3.org/2000/svg">
<path d="M12.4166 2.74992L13.0648 2.10174C12.8929 1.92983 12.6597 1.83325 12.4166 1.83325V2.74992ZM17.9166 8.24992H18.8333C18.8333 8.0068 18.7367 7.77365 18.5648 7.60174L17.9166 8.24992ZM9.66663 11.9166C9.66663 11.4103 9.25622 10.9999 8.74996 10.9999C8.2437 10.9999 7.83329 11.4103 7.83329 11.9166H9.66663ZM7.83329 14.6666C7.83329 15.1729 8.2437 15.5833 8.74996 15.5833C9.25622 15.5833 9.66663 15.1729 9.66663 14.6666H7.83329ZM8.29163 8.24992C7.78537 8.24992 7.37496 8.66033 7.37496 9.16659C7.37496 9.67286 7.78537 10.0833 8.29163 10.0833V8.24992ZM9.20829 10.0833C9.71457 10.0833 10.125 9.67286 10.125 9.16659C10.125 8.66033 9.71457 8.24992 9.20829 8.24992V10.0833ZM8.29163 5.49992C7.78537 5.49992 7.37496 5.91033 7.37496 6.41659C7.37496 6.92284 7.78537 7.33325 8.29163 7.33325V5.49992ZM9.20829 7.33325C9.71457 7.33325 10.125 6.92284 10.125 6.41659C10.125 5.91033 9.71457 5.49992 9.20829 5.49992V7.33325ZM11.5 2.74992V6.78325H13.3333V2.74992H11.5ZM13.8833 9.16659H17.9166V7.33325H13.8833V9.16659ZM11.5 6.78325C11.5 7.02482 11.4992 7.26112 11.5155 7.45996C11.5326 7.66951 11.573 7.91677 11.6998 8.16557L13.3333 7.33325C13.3602 7.38597 13.3506 7.40684 13.3427 7.31068C13.334 7.2038 13.3333 7.05507 13.3333 6.78325H11.5ZM13.8833 7.33325C13.6115 7.33325 13.4627 7.33254 13.3558 7.32381C13.2597 7.31596 13.2806 7.3064 13.3333 7.33325L12.501 8.96676C12.7497 9.09354 12.9971 9.13394 13.2066 9.15105C13.4054 9.16732 13.6418 9.16659 13.8833 9.16659V7.33325ZM11.6998 8.16557C11.8755 8.51053 12.156 8.791 12.501 8.96676L13.3333 7.33325L11.6998 8.16557ZM7.83329 11.9166V14.6666H9.66663V11.9166H7.83329ZM8.29163 10.0833H9.20829V8.24992H8.29163V10.0833ZM8.29163 7.33325H9.20829V5.49992H8.29163V7.33325ZM12.4166 1.83325H8.01663V3.66659H12.4166V1.83325ZM4.16663 5.68325V16.3166H5.99996V5.68325H4.16663ZM8.01663 20.1666H14.9833V18.3333H8.01663V20.1666ZM18.8333 16.3166V8.24992H17V16.3166H18.8333ZM18.5648 7.60174L13.0648 2.10174L11.7685 3.3981L17.2685 8.8981L18.5648 7.60174ZM14.9833 20.1666C15.4816 20.1666 15.9104 20.1673 16.262 20.1385C16.6245 20.1089 16.9849 20.0436 17.3318 19.8668L16.4995 18.2333C16.4541 18.2564 16.3618 18.291 16.1128 18.3113C15.853 18.3325 15.5118 18.3333 14.9833 18.3333V20.1666ZM17 16.3166C17 16.8451 16.9992 17.1863 16.9781 17.4461C16.9577 17.6951 16.9231 17.7874 16.9 17.8328L18.5335 18.6651C18.7103 18.3182 18.7756 17.9578 18.8052 17.5953C18.834 17.2437 18.8333 16.8149 18.8333 16.3166H17ZM17.3318 19.8668C17.8493 19.6032 18.2699 19.1825 18.5335 18.6651L16.9 17.8328C16.8121 18.0053 16.672 18.1454 16.4995 18.2333L17.3318 19.8668ZM4.16663 16.3166C4.16663 16.8149 4.16591 17.2437 4.19465 17.5953C4.22426 17.9578 4.28964 18.3182 4.46636 18.6651L6.09987 17.8328C6.07678 17.7874 6.04224 17.6951 6.0219 17.4461C6.00068 17.1863 5.99996 16.8451 5.99996 16.3166H4.16663ZM8.01663 18.3333C7.48812 18.3333 7.14687 18.3325 6.88715 18.3113C6.63812 18.291 6.54579 18.2564 6.50047 18.2333L5.66816 19.8668C6.015 20.0436 6.37545 20.1089 6.73785 20.1385C7.08955 20.1673 7.51837 20.1666 8.01663 20.1666V18.3333ZM4.46636 18.6651C4.73001 19.1825 5.15071 19.6032 5.66816 19.8668L6.50047 18.2333C6.32799 18.1454 6.18776 18.0053 6.09987 17.8328L4.46636 18.6651ZM8.01663 1.83325C7.51837 1.83325 7.08955 1.83254 6.73785 1.86128C6.37545 1.89088 6.015 1.95626 5.66816 2.13299L6.50047 3.76649C6.54579 3.7434 6.63812 3.70886 6.88715 3.68852C7.14687 3.6673 7.48812 3.66659 8.01663 3.66659V1.83325ZM5.99996 5.68325C5.99996 5.15475 6.00068 4.81349 6.0219 4.55377C6.04224 4.30474 6.07678 4.21242 6.09987 4.1671L4.46636 3.33478C4.28964 3.68163 4.22426 4.04208 4.19465 4.40448C4.16591 4.75617 4.16663 5.185 4.16663 5.68325H5.99996ZM5.66816 2.13299C5.15071 2.39664 4.73001 2.81733 4.46636 3.33478L6.09987 4.1671C6.18776 3.99462 6.32799 3.85438 6.50047 3.76649L5.66816 2.13299Z" fill="white"/>
</svg>
