<svg width="22" height="22" viewBox="0 0 22 22" fill="none" xmlns="http://www.w3.org/2000/svg">
<path d="M10.9627 16.5662C10.8723 16.5659 10.783 16.5467 10.7005 16.5097C10.6181 16.4726 10.5443 16.4187 10.484 16.3513L4.45466 9.66496C4.37181 9.57233 4.3175 9.45773 4.29828 9.33495C4.27906 9.21217 4.29575 9.08645 4.34633 8.97293C4.39691 8.85942 4.47923 8.76295 4.58338 8.69514C4.68753 8.62733 4.80905 8.59108 4.93333 8.59074H7.34774V2.70703C7.34774 2.53609 7.41565 2.37215 7.53652 2.25128C7.65739 2.13041 7.82133 2.0625 7.99227 2.0625H13.9349C14.1058 2.0625 14.2697 2.13041 14.3906 2.25128C14.5115 2.37215 14.5794 2.53609 14.5794 2.70703V8.58902H16.9925C17.1168 8.58936 17.2383 8.62561 17.3425 8.69342C17.4466 8.76123 17.5289 8.8577 17.5795 8.97122C17.6301 9.08473 17.6468 9.21045 17.6276 9.33323C17.6083 9.45601 17.554 9.57061 17.4712 9.66324L11.4414 16.353C11.381 16.4201 11.3071 16.4737 11.2247 16.5104C11.1422 16.5472 11.053 16.5661 10.9627 16.5662ZM6.38223 9.87809L10.9627 14.9591L15.5436 9.87809H13.9349C13.7639 9.87809 13.6 9.81018 13.4791 9.68931C13.3582 9.56843 13.2903 9.40449 13.2903 9.23355V3.35156H8.6368V9.23355C8.6368 9.40449 8.5689 9.56843 8.44803 9.68931C8.32715 9.81018 8.16321 9.87809 7.99227 9.87809H6.38223Z" fill="white"/>
<path d="M16.7939 19.3359H5.13179C4.38795 19.3351 3.67479 19.0393 3.14878 18.5134C2.62276 17.9874 2.32684 17.2743 2.32593 16.5305V14.8904C2.32593 14.7194 2.39383 14.5555 2.51471 14.4346C2.63558 14.3138 2.79952 14.2458 2.97046 14.2458C3.1414 14.2458 3.30534 14.3138 3.42621 14.4346C3.54708 14.5555 3.61499 14.7194 3.61499 14.8904V16.5305C3.61556 16.9326 3.77556 17.318 4.0599 17.6023C4.34425 17.8865 4.72972 18.0464 5.13179 18.0469H16.7939C17.196 18.0464 17.5814 17.8865 17.8657 17.6022C18.1499 17.318 18.3098 16.9325 18.3103 16.5305V14.8904C18.3103 14.7194 18.3782 14.5555 18.4991 14.4346C18.62 14.3138 18.7839 14.2458 18.9548 14.2458C19.1258 14.2458 19.2897 14.3138 19.4106 14.4346C19.5315 14.5555 19.5994 14.7194 19.5994 14.8904V16.5305C19.5985 17.2743 19.3026 17.9873 18.7767 18.5132C18.2507 19.0392 17.5377 19.335 16.7939 19.3359Z" fill="white"/>
</svg>
