<svg width="30" height="31" viewBox="0 0 30 31" fill="none" xmlns="http://www.w3.org/2000/svg">
<path d="M10 29.25H7.5C6.67924 29.25 5.86651 29.0883 5.10823 28.7742C4.34994 28.4602 3.66095 27.9998 3.08058 27.4194C2.50022 26.8391 2.03984 26.1501 1.72575 25.3918C1.41166 24.6335 1.25 23.8208 1.25 23V8C1.25 6.3424 1.90848 4.75269 3.08058 3.58058C4.25269 2.40848 5.8424 1.75 7.5 1.75H17.5C18.3208 1.75 19.1335 1.91166 19.8918 2.22575C20.6501 2.53984 21.3391 3.00022 21.9194 3.58058C22.4998 4.16095 22.9602 4.84994 23.2742 5.60823C23.5883 6.36651 23.75 7.17924 23.75 8V10.5C23.75 10.8315 23.6183 11.1495 23.3839 11.3839C23.1495 11.6183 22.8315 11.75 22.5 11.75C22.1685 11.75 21.8505 11.6183 21.6161 11.3839C21.3817 11.1495 21.25 10.8315 21.25 10.5V8C21.25 7.00544 20.8549 6.05161 20.1517 5.34835C19.4484 4.64509 18.4946 4.25 17.5 4.25H7.5C6.50544 4.25 5.55161 4.64509 4.84835 5.34835C4.14509 6.05161 3.75 7.00544 3.75 8V23C3.75 23.9946 4.14509 24.9484 4.84835 25.6517C5.55161 26.3549 6.50544 26.75 7.5 26.75H10C10.3315 26.75 10.6495 26.8817 10.8839 27.1161C11.1183 27.3505 11.25 27.6685 11.25 28C11.25 28.3315 11.1183 28.6495 10.8839 28.8839C10.6495 29.1183 10.3315 29.25 10 29.25Z" fill="white"/>
<path d="M15 16.75H7.5C7.16848 16.75 6.85054 16.6183 6.61612 16.3839C6.3817 16.1495 6.25 15.8315 6.25 15.5C6.25 15.1685 6.3817 14.8505 6.61612 14.6161C6.85054 14.3817 7.16848 14.25 7.5 14.25H15C15.3315 14.25 15.6495 14.3817 15.8839 14.6161C16.1183 14.8505 16.25 15.1685 16.25 15.5C16.25 15.8315 16.1183 16.1495 15.8839 16.3839C15.6495 16.6183 15.3315 16.75 15 16.75Z" fill="white"/>
<path d="M10 21.75H7.5C7.16848 21.75 6.85054 21.6183 6.61612 21.3839C6.3817 21.1495 6.25 20.8315 6.25 20.5C6.25 20.1685 6.3817 19.8505 6.61612 19.6161C6.85054 19.3817 7.16848 19.25 7.5 19.25H10C10.3315 19.25 10.6495 19.3817 10.8839 19.6161C11.1183 19.8505 11.25 20.1685 11.25 20.5C11.25 20.8315 11.1183 21.1495 10.8839 21.3839C10.6495 21.6183 10.3315 21.75 10 21.75Z" fill="white"/>
<path d="M17.5 11.75H7.5C7.16848 11.75 6.85054 11.6183 6.61612 11.3839C6.3817 11.1495 6.25 10.8315 6.25 10.5C6.25 10.1685 6.3817 9.85054 6.61612 9.61612C6.85054 9.3817 7.16848 9.25 7.5 9.25H17.5C17.8315 9.25 18.1495 9.3817 18.3839 9.61612C18.6183 9.85054 18.75 10.1685 18.75 10.5C18.75 10.8315 18.6183 11.1495 18.3839 11.3839C18.1495 11.6183 17.8315 11.75 17.5 11.75Z" fill="white"/>
<path d="M14.9999 29.25C14.8211 29.2515 14.6441 29.2147 14.4808 29.1419C14.3175 29.0692 14.1716 28.9623 14.0532 28.8284C13.9347 28.6946 13.8463 28.5368 13.794 28.3659C13.7417 28.1949 13.7266 28.0148 13.7499 27.8375L14.1624 24.6375C14.2598 23.813 14.6344 23.0461 15.2249 22.4625L22.3374 15.35C23.0527 14.6712 24.0012 14.2928 24.9874 14.2928C25.9735 14.2928 26.922 14.6712 27.6374 15.35C28.3396 16.0531 28.7341 17.0062 28.7341 18C28.7341 18.9938 28.3396 19.9469 27.6374 20.65L20.5249 27.7625C19.9412 28.3529 19.1743 28.7276 18.3499 28.825L15.1624 29.25H14.9999ZM24.9999 16.75C24.8354 16.749 24.6723 16.7806 24.52 16.8428C24.3677 16.905 24.2292 16.9966 24.1124 17.1125L17.0124 24.25C16.8144 24.4447 16.6868 24.6998 16.6499 24.975L16.4499 26.575L18.0499 26.375C18.3161 26.3245 18.5604 26.1936 18.7499 26L25.8624 18.8875C25.9795 18.7713 26.0725 18.633 26.136 18.4807C26.1994 18.3284 26.2321 18.165 26.2321 18C26.2321 17.835 26.1994 17.6716 26.136 17.5193C26.0725 17.367 25.9795 17.2287 25.8624 17.1125C25.6326 16.8846 25.3235 16.7546 24.9999 16.75Z" fill="white"/>
</svg>
