<svg width="40" height="40" viewBox="0 0 40 40" fill="none" xmlns="http://www.w3.org/2000/svg">
<g clip-path="url(#clip0_335_315)">
<path d="M15.2605 2.30919H19.0962C20.5492 2.30919 21.76 3.34703 22.0367 4.71784H24.2249C23.9308 2.14919 21.7427 0.147026 19.0962 0.147026H15.2605C12.614 0.147026 10.4259 2.14919 10.1318 4.71784H12.32C12.5967 3.3427 13.8076 2.30919 15.2605 2.30919Z" fill="white" stroke="white" stroke-width="0.0691892"/>
<path d="M5.50077 13.9416C8.60564 15.9481 12.7527 17.0551 17.1808 17.0551C21.6089 17.0551 25.7516 15.9481 28.8608 13.9416C31.6543 12.1384 33.2759 9.80757 33.4748 7.33838C32.7267 6.4 31.5765 5.79892 30.2792 5.79892H24.2597H22.0975H12.264H10.1019H4.08239C2.78942 5.79892 1.63483 6.4 0.886719 7.33838C1.08564 9.80757 2.70726 12.1341 5.50077 13.9416Z" fill="white" stroke="white" stroke-width="0.0691892"/>
<path d="M15.7012 19.9395C15.7012 20.6141 16.2504 21.1632 16.925 21.1632H17.4309C18.1055 21.1632 18.6547 20.6141 18.6547 19.9395V18.9622H15.7012V19.9395Z" fill="white" stroke="white" stroke-width="0.0691892"/>
<path d="M4.08216 26.6898H22.2227V23.9351C22.2227 23.6022 22.3568 23.2865 22.5946 23.053L26.733 18.9838C26.9664 18.7546 27.2778 18.6292 27.6022 18.6292H34.3568V10.5081C34.1751 10.88 33.9676 11.2476 33.7297 11.6108C32.8 13.0335 31.4724 14.3049 29.7946 15.3903C27.187 17.0768 23.9222 18.1751 20.3849 18.5946V18.9578V19.9351C20.3849 21.5654 19.0616 22.8886 17.4313 22.8886H16.9254C15.2951 22.8886 13.9718 21.5654 13.9718 19.9351V18.9578V18.5946C10.4346 18.1794 7.16969 17.0767 4.56212 15.3903C2.88428 14.3049 1.55671 13.0335 0.626984 11.6108C0.389189 11.2476 0.181622 10.88 0 10.5081V22.6076C0 24.8605 1.82919 26.6898 4.08216 26.6898Z" fill="white" stroke="white" stroke-width="0.0691892"/>
<path d="M28.5233 19.6151C27.9439 19.6151 27.3774 19.853 26.9666 20.2638L23.9784 23.2736C23.5676 23.6887 23.3428 24.2336 23.3428 24.8173V26.6898V27.2304V27.7709V37.6605C23.3428 37.7643 23.3514 37.8682 23.3644 37.9676C23.5114 39.0314 24.4282 39.853 25.5352 39.853H37.8076C39.0141 39.853 40.0001 38.8714 40.0001 37.6606V21.8033C40.0001 20.7438 39.2476 19.8616 38.2487 19.6584C38.106 19.6281 37.959 19.6151 37.812 19.6151H35.4379H34.8974H34.3568H28.5233ZM35.4379 21.7773H37.8076C37.8249 21.7773 37.8379 21.7903 37.8379 21.8076V37.6649C37.8379 37.6692 37.8379 37.6692 37.8379 37.6736C37.8336 37.6865 37.8249 37.6952 37.812 37.6952C37.812 37.6952 37.812 37.6952 37.8076 37.6952H25.5352C25.5179 37.6952 25.5049 37.6822 25.5049 37.6649V27.7709V27.2303V26.6898V25.2627H27.092C28.0822 25.2627 28.8866 24.4583 28.8866 23.4682V21.7773H34.3568H34.8974H35.4379Z" fill="white" stroke="white" stroke-width="0.0691892"/>
<path d="M32.4328 26.6941H27.7237C27.3259 26.6941 26.9799 26.9103 26.7896 27.2303C26.6945 27.3903 26.6426 27.5718 26.6426 27.7709V27.7752C26.6426 28.3719 27.1269 28.8563 27.7237 28.8563H35.6242C36.221 28.8563 36.7053 28.3719 36.7053 27.7752C36.7053 27.1784 36.221 26.6941 35.6242 26.6941H33.4318H32.4328Z" fill="white" stroke="white" stroke-width="0.0691892"/>
<path d="M35.6242 33.5049H27.7237C27.1269 33.5049 26.6426 33.9892 26.6426 34.586C26.6426 35.1827 27.1269 35.6671 27.7237 35.6671H35.6242C36.221 35.6671 36.7053 35.1827 36.7053 34.586C36.7053 33.9892 36.221 33.5049 35.6242 33.5049Z" fill="white" stroke="white" stroke-width="0.0691892"/>
<path d="M35.6242 30.1016H27.7237C27.1269 30.1016 26.6426 30.586 26.6426 31.1827C26.6426 31.7795 27.1269 32.2638 27.7237 32.2638H35.6242C36.221 32.2638 36.7053 31.7795 36.7053 31.1827C36.7053 30.586 36.221 30.1016 35.6242 30.1016Z" fill="white" stroke="white" stroke-width="0.0691892"/>
</g>
<defs>
<clipPath id="clip0_335_315">
<rect width="40" height="40" fill="white"/>
</clipPath>
</defs>
</svg>
