<svg width="28" height="33" viewBox="0 0 28 33" fill="none" xmlns="http://www.w3.org/2000/svg">
<g clip-path="url(#clip0_335_299)">
<path d="M13.7863 15.8972C14.8503 15.9116 15.9061 15.7124 16.8891 15.3117C17.8721 14.9109 18.7616 14.3172 19.5031 13.5667C20.2628 12.8365 20.8632 11.9618 21.2678 10.9958C21.6723 10.0299 21.8725 8.9931 21.8561 7.9486C21.8728 6.90357 21.6727 5.86616 21.2682 4.89966C20.8636 3.93317 20.2631 3.05786 19.5031 2.32715C18.7612 1.57745 17.8715 0.984402 16.8886 0.584271C15.9057 0.184141 14.8501 -0.0146698 13.7863 -7.09767e-06C12.7231 -0.0144084 11.6681 0.184535 10.6858 0.584664C9.70341 0.984793 8.81435 1.5777 8.07294 2.32715C7.30974 3.05631 6.70589 3.93095 6.29837 4.89754C5.89085 5.86414 5.68822 6.90234 5.70289 7.9486C5.68869 8.99431 5.89154 10.0319 6.29905 10.9979C6.70656 11.9638 7.31016 12.8379 8.07294 13.5667C8.81419 14.3166 9.70313 14.91 10.6855 15.3107C11.6678 15.7114 12.7229 15.911 13.7863 15.8972Z" fill="white"/>
<path d="M27.9317 25.3771C27.8786 24.6777 27.7874 23.9816 27.6585 23.2918C27.5312 22.5828 27.3567 21.8828 27.136 21.1963C26.9127 20.5168 26.6186 19.8619 26.2583 19.2419C25.9023 18.6226 25.4572 18.057 24.9367 17.5628C24.3869 17.055 23.742 16.657 23.0379 16.3909C22.2646 16.0983 21.4418 15.9524 20.6132 15.961C20.2717 15.961 19.9302 16.0987 19.2985 16.5084L17.9324 17.3748C17.3767 17.6983 16.7826 17.9532 16.1634 18.1337C14.7577 18.5922 13.2389 18.5922 11.8332 18.1337C11.2136 17.9514 10.6194 17.6942 10.0642 17.3681L8.69813 16.4983C8.05952 16.0886 7.72826 15.951 7.38334 15.951C6.55452 15.9433 5.73175 16.0903 4.95865 16.3841C4.25999 16.6483 3.61986 17.0429 3.07355 17.546C2.55309 18.0402 2.10795 18.6058 1.75192 19.2251C1.39176 19.8451 1.09764 20.5001 0.874253 21.1795C0.649464 21.8713 0.471492 22.5769 0.341505 23.2918C0.212489 23.9816 0.121289 24.6777 0.068301 25.3771C0.0239054 26.0084 0 26.6633 0 27.3248C0 29.0475 0.556653 30.4411 1.6563 31.4721C2.75595 32.503 4.17661 33.0034 5.9217 33.0034H22.0783C23.8234 33.0034 25.2577 32.4896 26.3437 31.4721C27.4297 30.4546 28.0034 29.0475 28.0034 27.3248C28.0034 26.6599 27.9761 26.0051 27.9317 25.3771Z" fill="white"/>
</g>
<defs>
<clipPath id="clip0_335_299">
<rect width="28" height="33" fill="white"/>
</clipPath>
</defs>
</svg>
