<svg width="35" height="36" viewBox="0 0 35 36" fill="none" xmlns="http://www.w3.org/2000/svg">
<rect y="0.5" width="35" height="35" rx="12" fill="#2F6A00"/>
<path d="M17 8.99997C12.0312 8.99997 8 13.0312 8 18C8 22.9687 12.0312 27 17 27C21.9687 27 26 22.9687 26 18C26 13.0312 21.9687 8.99997 17 8.99997ZM16.7187 23.25C16.5333 23.25 16.3521 23.195 16.1979 23.092C16.0437 22.989 15.9236 22.8425 15.8526 22.6712C15.7817 22.4999 15.7631 22.3114 15.7993 22.1296C15.8354 21.9477 15.9247 21.7807 16.0558 21.6496C16.1869 21.5184 16.354 21.4292 16.5359 21.393C16.7177 21.3568 16.9062 21.3754 17.0775 21.4463C17.2488 21.5173 17.3952 21.6374 17.4983 21.7916C17.6013 21.9458 17.6562 22.127 17.6562 22.3125C17.6562 22.5611 17.5575 22.7996 17.3817 22.9754C17.2058 23.1512 16.9674 23.25 16.7187 23.25ZM18.2862 18.4687C17.5264 18.9787 17.4219 19.4461 17.4219 19.875C17.4219 20.049 17.3527 20.2159 17.2297 20.339C17.1066 20.4621 16.9397 20.5312 16.7656 20.5312C16.5916 20.5312 16.4247 20.4621 16.3016 20.339C16.1785 20.2159 16.1094 20.049 16.1094 19.875C16.1094 18.8479 16.5819 18.0314 17.5541 17.3784C18.4578 16.7718 18.9687 16.3875 18.9687 15.5423C18.9687 14.9676 18.6406 14.5312 17.9614 14.2082C17.8016 14.1323 17.4458 14.0582 17.008 14.0634C16.4586 14.0704 16.032 14.2017 15.7034 14.4661C15.0837 14.9648 15.0312 15.5076 15.0312 15.5156C15.0271 15.6018 15.006 15.6863 14.9692 15.7643C14.9324 15.8424 14.8805 15.9124 14.8167 15.9704C14.7528 16.0284 14.6781 16.0732 14.5969 16.1024C14.5157 16.1315 14.4295 16.1444 14.3434 16.1402C14.2572 16.136 14.1727 16.115 14.0946 16.0781C14.0166 16.0413 13.9466 15.9895 13.8886 15.9256C13.8306 15.8617 13.7857 15.7871 13.7566 15.7059C13.7275 15.6246 13.7146 15.5385 13.7187 15.4523C13.7239 15.3384 13.8031 14.3123 14.8798 13.4461C15.4381 12.997 16.1483 12.7636 16.9892 12.7533C17.5845 12.7462 18.1437 12.847 18.523 13.0261C19.6578 13.5628 20.2812 14.4576 20.2812 15.5423C20.2812 17.1281 19.2214 17.8401 18.2862 18.4687Z" fill="white"/>
</svg>
