<svg width="24" height="29" viewBox="0 0 24 29" fill="none" xmlns="http://www.w3.org/2000/svg">
<path d="M7.74967 21.5833H16.2497M7.74967 15.9167H16.2497M7.74967 10.25H9.16634M13.4163 1.75H6.61634C5.02953 1.75 4.23611 1.75 3.63004 2.05882C3.0969 2.33045 2.66346 2.76389 2.39183 3.29703C2.08301 3.90311 2.08301 4.69652 2.08301 6.28333V22.7167C2.08301 24.3035 2.08301 25.097 2.39183 25.703C2.66346 26.2361 3.0969 26.6696 3.63004 26.9412C4.23611 27.25 5.02953 27.25 6.61634 27.25H17.383C18.9698 27.25 19.7633 27.25 20.3693 26.9412C20.9024 26.6696 21.3359 26.2361 21.6075 25.703C21.9163 25.097 21.9163 24.3035 21.9163 22.7167V10.25M13.4163 1.75L21.9163 10.25M13.4163 1.75V7.98333C13.4163 8.77674 13.4163 9.17345 13.5708 9.47649C13.7066 9.74305 13.9232 9.95977 14.1898 10.0956C14.4929 10.25 14.8895 10.25 15.683 10.25H21.9163" stroke="white" stroke-width="3" stroke-linecap="round" stroke-linejoin="round"/>
</svg>
