<svg width="17" height="17" viewBox="0 0 17 17" fill="none" xmlns="http://www.w3.org/2000/svg">
<path d="M12.2289 10.8429C13.1972 9.52157 13.6308 7.88337 13.4432 6.25603C13.2555 4.62869 12.4603 3.13222 11.2166 2.06601C9.97298 0.999801 8.37261 0.442483 6.7357 0.505557C5.09878 0.56863 3.54604 1.24744 2.38813 2.40619C1.23021 3.56493 0.55251 5.11816 0.490608 6.75511C0.428707 8.39207 0.987169 9.99204 2.05427 11.2349C3.12137 12.4778 4.6184 13.2719 6.24588 13.4585C7.87335 13.645 9.51124 13.2101 10.8319 12.2409H10.8309C10.8609 12.2809 10.8929 12.3189 10.9289 12.3559L14.7789 16.2059C14.9664 16.3935 15.2207 16.499 15.486 16.4991C15.7513 16.4992 16.0057 16.3939 16.1934 16.2064C16.381 16.0189 16.4865 15.7645 16.4866 15.4992C16.4867 15.234 16.3814 14.9795 16.1939 14.7919L12.3439 10.9419C12.3081 10.9057 12.2697 10.8723 12.2289 10.8419V10.8429ZM12.4869 6.99888C12.4869 7.72115 12.3446 8.43635 12.0682 9.10364C11.7918 9.77093 11.3867 10.3772 10.8759 10.888C10.3652 11.3987 9.75891 11.8038 9.09162 12.0802C8.42433 12.3566 7.70913 12.4989 6.98686 12.4989C6.26459 12.4989 5.54939 12.3566 4.8821 12.0802C4.21481 11.8038 3.60849 11.3987 3.09777 10.888C2.58705 10.3772 2.18192 9.77093 1.90552 9.10364C1.62912 8.43635 1.48686 7.72115 1.48686 6.99888C1.48686 5.54019 2.06632 4.14124 3.09777 3.10979C4.12922 2.07834 5.52817 1.49888 6.98686 1.49888C8.44555 1.49888 9.8445 2.07834 10.8759 3.10979C11.9074 4.14124 12.4869 5.54019 12.4869 6.99888Z" fill="#8A8A8A"/>
</svg>
