<svg width="22" height="22" viewBox="0 0 22 22" fill="none" xmlns="http://www.w3.org/2000/svg">
<path d="M17.4378 15.5622C17.0085 15.1509 16.5906 14.7279 16.1847 14.2935C15.8437 13.947 15.6384 13.6949 15.6384 13.6949L13.0717 12.4693C14.0993 11.3039 14.6664 9.80366 14.6667 8.24992C14.6667 4.7125 11.7884 1.83325 8.25004 1.83325C4.71171 1.83325 1.83337 4.7125 1.83337 8.24992C1.83337 11.7873 4.71171 14.6666 8.25004 14.6666C9.86612 14.6666 11.3392 14.0616 12.4695 13.0725L13.695 15.6392C13.695 15.6392 13.9471 15.8445 14.2936 16.1855C14.6484 16.5183 15.115 16.9683 15.5623 17.4386L16.8071 18.7146L17.3608 19.3068L19.305 17.3625L18.7129 16.8088C18.3655 16.4678 17.9016 16.015 17.4378 15.5622ZM8.25004 12.8333C5.72279 12.8333 3.66671 10.7772 3.66671 8.24992C3.66671 5.72267 5.72279 3.66659 8.25004 3.66659C10.7773 3.66659 12.8334 5.72267 12.8334 8.24992C12.8334 10.7772 10.7773 12.8333 8.25004 12.8333Z" fill="white"/>
</svg>
