<svg width="19" height="23" viewBox="0 0 19 23" fill="none" xmlns="http://www.w3.org/2000/svg">
<path d="M18.0938 7.75H13.6875C12.9416 7.75 12.2262 7.45368 11.6988 6.92624C11.1713 6.39879 10.875 5.68342 10.875 4.9375V0.53125C10.875 0.456658 10.8454 0.385121 10.7926 0.332376C10.7399 0.279631 10.6683 0.25 10.5938 0.25H3.375C2.62908 0.25 1.91371 0.546316 1.38626 1.07376C0.858816 1.60121 0.5625 2.31658 0.5625 3.0625V19.9375C0.5625 20.6834 0.858816 21.3988 1.38626 21.9262C1.91371 22.4537 2.62908 22.75 3.375 22.75H15.5625C16.3084 22.75 17.0238 22.4537 17.5512 21.9262C18.0787 21.3988 18.375 20.6834 18.375 19.9375V8.03125C18.375 7.99432 18.3677 7.95774 18.3536 7.92362C18.3395 7.8895 18.3187 7.85849 18.2926 7.83238C18.2665 7.80626 18.2355 7.78554 18.2014 7.77141C18.1673 7.75727 18.1307 7.75 18.0938 7.75ZM12.2812 14.7812H9.9375V17.125C9.9375 17.3736 9.83873 17.6121 9.66291 17.7879C9.4871 17.9637 9.24864 18.0625 9 18.0625C8.75136 18.0625 8.5129 17.9637 8.33709 17.7879C8.16127 17.6121 8.0625 17.3736 8.0625 17.125V14.7812H5.71875C5.47011 14.7812 5.23165 14.6825 5.05584 14.5067C4.88002 14.3308 4.78125 14.0924 4.78125 13.8438C4.78125 13.5951 4.88002 13.3567 5.05584 13.1808C5.23165 13.005 5.47011 12.9062 5.71875 12.9062H8.0625V10.5625C8.0625 10.3139 8.16127 10.0754 8.33709 9.89959C8.5129 9.72377 8.75136 9.625 9 9.625C9.24864 9.625 9.4871 9.72377 9.66291 9.89959C9.83873 10.0754 9.9375 10.3139 9.9375 10.5625V12.9062H12.2812C12.5299 12.9062 12.7683 13.005 12.9442 13.1808C13.12 13.3567 13.2188 13.5951 13.2188 13.8438C13.2188 14.0924 13.12 14.3308 12.9442 14.5067C12.7683 14.6825 12.5299 14.7812 12.2812 14.7812Z" fill="white"/>
</svg>
