<svg width="30" height="31" viewBox="0 0 30 31" fill="none" xmlns="http://www.w3.org/2000/svg">
<path d="M19.6875 9.87498H23.3719C23.4086 9.87446 23.4443 9.86319 23.4747 9.84255C23.505 9.82192 23.5286 9.79283 23.5426 9.75889C23.5566 9.72495 23.5603 9.68766 23.5533 9.65163C23.5463 9.61561 23.5288 9.58244 23.5031 9.55623L19.0688 5.12185C19.0425 5.09616 19.0094 5.07872 18.9733 5.0717C18.9373 5.06468 18.9 5.06839 18.8661 5.08236C18.8322 5.09633 18.8031 5.11996 18.7824 5.15031C18.7618 5.18066 18.7505 5.21641 18.75 5.2531V8.93748C18.75 9.18612 18.8488 9.42458 19.0246 9.60039C19.2004 9.77621 19.4389 9.87498 19.6875 9.87498Z" fill="white"/>
<path d="M24.0938 11.75H19.6875C18.9416 11.75 18.2262 11.4537 17.6988 10.9262C17.1713 10.3988 16.875 9.68342 16.875 8.9375V4.53125C16.875 4.45666 16.8454 4.38512 16.7926 4.33238C16.7399 4.27963 16.6683 4.25 16.5938 4.25H9.375C8.62908 4.25 7.91371 4.54632 7.38626 5.07376C6.85882 5.60121 6.5625 6.31658 6.5625 7.0625V23.9375C6.5625 24.6834 6.85882 25.3988 7.38626 25.9262C7.91371 26.4537 8.62908 26.75 9.375 26.75H21.5625C22.3084 26.75 23.0238 26.4537 23.5512 25.9262C24.0787 25.3988 24.375 24.6834 24.375 23.9375V12.0312C24.375 11.9943 24.3677 11.9577 24.3536 11.9236C24.3395 11.8895 24.3187 11.8585 24.2926 11.8324C24.2665 11.8063 24.2355 11.7855 24.2014 11.7714C24.1673 11.7573 24.1307 11.75 24.0938 11.75ZM18.2812 18.7812H15.9375V21.125C15.9375 21.3736 15.8387 21.6121 15.6629 21.7879C15.4871 21.9637 15.2486 22.0625 15 22.0625C14.7514 22.0625 14.5129 21.9637 14.3371 21.7879C14.1613 21.6121 14.0625 21.3736 14.0625 21.125V18.7812H11.7188C11.4701 18.7812 11.2317 18.6825 11.0558 18.5067C10.88 18.3308 10.7812 18.0924 10.7812 17.8438C10.7812 17.5951 10.88 17.3567 11.0558 17.1808C11.2317 17.005 11.4701 16.9062 11.7188 16.9062H14.0625V14.5625C14.0625 14.3139 14.1613 14.0754 14.3371 13.8996C14.5129 13.7238 14.7514 13.625 15 13.625C15.2486 13.625 15.4871 13.7238 15.6629 13.8996C15.8387 14.0754 15.9375 14.3139 15.9375 14.5625V16.9062H18.2812C18.5299 16.9062 18.7683 17.005 18.9442 17.1808C19.12 17.3567 19.2188 17.5951 19.2188 17.8438C19.2188 18.0924 19.12 18.3308 18.9442 18.5067C18.7683 18.6825 18.5299 18.7812 18.2812 18.7812Z" fill="white"/>
</svg>
