<svg width="23" height="22" viewBox="0 0 23 22" fill="none" xmlns="http://www.w3.org/2000/svg">
<g clip-path="url(#clip0_222_950)">
<path d="M21.2555 12.6124C20.9161 12.1434 20.7335 11.5793 20.7335 11.0004C20.7335 10.4216 20.9161 9.85746 21.2555 9.38847L21.9558 8.42139C22.0407 8.30437 22.0966 8.16894 22.1192 8.02615C22.1417 7.88337 22.1302 7.73727 22.0855 7.5998C22.0408 7.46233 21.9642 7.33738 21.862 7.23514C21.7598 7.13291 21.6349 7.05629 21.4975 7.01155L20.3709 6.64489C19.819 6.46618 19.3379 6.11714 18.9968 5.64791C18.6557 5.17868 18.4722 4.61341 18.4725 4.0333V2.84164C18.4725 2.69712 18.4384 2.55464 18.3729 2.42582C18.3073 2.29701 18.2123 2.18551 18.0955 2.10042C17.9787 2.01533 17.8434 1.95907 17.7007 1.93623C17.558 1.91338 17.4119 1.9246 17.2744 1.96897L16.1331 2.33564C15.582 2.51323 14.9889 2.51235 14.4383 2.3331C13.8877 2.15385 13.4078 1.8054 13.0669 1.33739L12.3656 0.376719C12.2765 0.26598 12.1638 0.176627 12.0356 0.115234C11.9074 0.0538416 11.7671 0.0219727 11.625 0.0219727C11.4828 0.0219727 11.3425 0.0538416 11.2143 0.115234C11.0862 0.176627 10.9734 0.26598 10.8843 0.376719L10.183 1.33922C9.84211 1.80723 9.36216 2.15569 8.81158 2.33493C8.26101 2.51418 7.6679 2.51507 7.11679 2.33747L5.97554 1.9708C5.83815 1.92648 5.69223 1.91524 5.54967 1.93799C5.40711 1.96074 5.27194 2.01684 5.15517 2.10171C5.03839 2.18659 4.94331 2.29785 4.87768 2.42643C4.81204 2.55501 4.7777 2.69727 4.77745 2.84164V4.0333C4.77776 4.61341 4.59417 5.17868 4.25308 5.64791C3.91198 6.11714 3.43093 6.46618 2.87904 6.64489L1.75245 7.01155C1.615 7.05629 1.49007 7.13291 1.38788 7.23514C1.28568 7.33738 1.20911 7.46233 1.16442 7.5998C1.11973 7.73727 1.10818 7.88337 1.13072 8.02615C1.15326 8.16894 1.20925 8.30437 1.29412 8.42139L1.99445 9.38755C2.33377 9.85654 2.51643 10.4206 2.51643 10.9995C2.51643 11.5784 2.33377 12.1425 1.99445 12.6115L1.29412 13.5786C1.20925 13.6956 1.15326 13.831 1.13072 13.9738C1.10818 14.1166 1.11973 14.2627 1.16442 14.4001C1.20911 14.5376 1.28568 14.6626 1.38788 14.7648C1.49007 14.867 1.615 14.9436 1.75245 14.9884L2.87904 15.3551C3.43093 15.5338 3.91198 15.8828 4.25308 16.352C4.59417 16.8213 4.77776 17.3865 4.77745 17.9666V19.1583C4.77746 19.303 4.81171 19.4456 4.87738 19.5744C4.94306 19.7033 5.03831 19.8148 5.15533 19.8999C5.27236 19.9849 5.40785 20.041 5.55072 20.0636C5.6936 20.0863 5.8398 20.0748 5.97737 20.0301L7.11037 19.6634C7.66257 19.4824 8.25802 19.4816 8.81068 19.6612C9.36334 19.8408 9.84459 20.1915 10.1849 20.6626L10.8834 21.6232C10.9684 21.7402 11.0799 21.8355 11.2088 21.9012C11.3377 21.9668 11.4803 22.0011 11.625 22.0011C11.7696 22.0011 11.9122 21.9668 12.0411 21.9012C12.17 21.8355 12.2815 21.7402 12.3665 21.6232L13.065 20.6626C13.4055 20.1917 13.8868 19.8412 14.4394 19.6616C14.992 19.482 15.5873 19.4827 16.1395 19.6634L17.2725 20.0301C17.4101 20.0748 17.5563 20.0863 17.6992 20.0636C17.8421 20.041 17.9775 19.9849 18.0946 19.8999C18.2116 19.8148 18.3068 19.7033 18.3725 19.5744C18.4382 19.4456 18.4724 19.303 18.4725 19.1583V17.9666C18.4714 17.3859 18.6546 16.8198 18.9958 16.3498C19.3369 15.8799 19.8184 15.5303 20.3709 15.3514L21.4975 14.9847C21.6349 14.94 21.7598 14.8634 21.862 14.7611C21.9642 14.6589 22.0408 14.5339 22.0855 14.3965C22.1302 14.259 22.1417 14.1129 22.1192 13.9701C22.0966 13.8273 22.0407 13.6919 21.9558 13.5749L21.2555 12.6124ZM19.7338 13.6354C18.8415 13.9399 18.0651 14.5128 17.5111 15.2757C16.9571 16.0387 16.6525 16.9542 16.6391 17.897C15.7375 17.6177 14.7716 17.6243 13.8739 17.9158C12.9761 18.2072 12.1906 18.7693 11.625 19.525C11.1996 18.9561 10.6475 18.4941 10.0124 18.1759C9.37738 17.8577 8.67687 17.6918 7.96654 17.6916C7.50697 17.692 7.05002 17.7609 6.61079 17.8961C6.59727 16.9533 6.29266 16.0378 5.73866 15.2749C5.18467 14.512 4.40838 13.9391 3.51612 13.6345C4.05966 12.8632 4.35142 11.9426 4.35142 10.9991C4.35142 10.0555 4.05966 9.13495 3.51612 8.36364C4.40867 8.05893 5.18516 7.48567 5.73918 6.72242C6.29321 5.95916 6.59765 5.04326 6.61079 4.10022C7.51214 4.37948 8.4778 4.3732 9.37544 4.08225C10.2731 3.79129 11.0588 3.22989 11.625 2.47497C12.1907 3.23048 12.9762 3.79251 13.8739 4.08398C14.7716 4.37544 15.7375 4.38208 16.6391 4.10297C16.6521 5.04617 16.9564 5.96227 17.5105 6.72571C18.0645 7.48915 18.8411 8.06254 19.7338 8.3673C19.1909 9.13835 18.8995 10.0583 18.8995 11.0013C18.8995 11.9444 19.1909 12.8643 19.7338 13.6354Z" fill="white"/>
<path d="M14.6436 8.51855L10.7083 12.4538L8.60641 10.3519C8.52185 10.2643 8.4207 10.1945 8.30886 10.1465C8.19703 10.0984 8.07674 10.0731 7.95503 10.0721C7.83331 10.071 7.71261 10.0942 7.59995 10.1403C7.4873 10.1864 7.38495 10.2545 7.29888 10.3405C7.21281 10.4266 7.14475 10.5289 7.09866 10.6416C7.05257 10.7542 7.02937 10.875 7.03043 10.9967C7.03149 11.1184 7.05678 11.2387 7.10482 11.3505C7.15286 11.4623 7.22269 11.5635 7.31024 11.648L10.0602 14.398C10.2321 14.5699 10.4653 14.6664 10.7083 14.6664C10.9514 14.6664 11.1845 14.5699 11.3564 14.398L15.9397 9.81472C16.1067 9.64183 16.1991 9.41028 16.197 9.16993C16.1949 8.92958 16.0985 8.69967 15.9286 8.52972C15.7586 8.35976 15.5287 8.26335 15.2884 8.26127C15.048 8.25918 14.8165 8.35157 14.6436 8.51855Z" fill="white"/>
</g>
<defs>
<clipPath id="clip0_222_950">
<rect width="22" height="22" fill="white" transform="translate(0.625)"/>
</clipPath>
</defs>
</svg>
