<svg width="405" height="47" viewBox="0 0 405 47" fill="none" xmlns="http://www.w3.org/2000/svg">
<path d="M193.799 37.5685H190.119C184.484 37.166 181.954 32.8343 181.954 28.9818C181.954 25.1293 184.484 20.7785 190.023 20.3951C190.809 20.3185 191.499 20.9318 191.556 21.7368C191.614 22.5226 191.02 23.2126 190.215 23.2701C186.496 23.5385 184.829 26.3368 184.829 29.001C184.829 31.6651 186.496 34.4635 190.215 34.7318H193.799C194.585 34.7318 195.236 35.3835 195.236 36.1693C195.236 36.9551 194.585 37.5685 193.799 37.5685Z" fill="#214098"/>
<path d="M211.451 37.5682C211.412 37.5682 211.393 37.5682 211.355 37.5682C210.569 37.5682 209.841 36.9166 209.841 36.1307C209.841 35.3066 210.454 34.6932 211.259 34.6932C213.617 34.6932 215.725 33.8691 217.373 32.3933C220.363 29.7866 220.555 26.0299 219.75 23.3849C218.945 20.7591 216.702 17.7499 212.792 17.2708C212.16 17.1941 211.662 16.7149 211.547 16.0824C210.78 11.4824 208.307 8.30076 204.551 7.15076C200.679 5.94326 196.156 7.13159 193.338 10.0833C190.597 12.9391 189.965 16.9449 191.556 21.3533C191.824 22.1008 191.441 22.9249 190.693 23.1932C189.946 23.4616 189.122 23.0783 188.853 22.3308C186.917 16.9258 187.799 11.7508 191.268 8.10909C194.814 4.39076 200.507 2.91491 205.394 4.40991C209.879 5.78991 213.042 9.48908 214.192 14.6257C218.102 15.5074 221.245 18.4783 222.491 22.5799C223.852 27.0458 222.625 31.6458 219.271 34.5591C217.143 36.4758 214.364 37.5682 211.451 37.5682Z" fill="#214098"/>
<path d="M202.5 43.2033C198.648 43.2033 195.044 41.1524 193.07 37.8366C192.859 37.5108 192.648 37.1275 192.476 36.7058C191.824 35.345 191.479 33.7925 191.479 32.1825C191.479 26.1066 196.424 21.1616 202.5 21.1616C208.576 21.1616 213.521 26.1066 213.521 32.1825C213.521 33.8116 213.176 35.345 212.486 36.7633C212.333 37.1275 212.122 37.5108 211.892 37.875C209.956 41.1525 206.353 43.2033 202.5 43.2033ZM202.5 24.0366C198.015 24.0366 194.354 27.6975 194.354 32.1825C194.354 33.3708 194.603 34.4824 195.083 35.4983C195.236 35.8241 195.37 36.0925 195.523 36.3416C196.98 38.8141 199.644 40.3283 202.481 40.3283C205.318 40.3283 207.982 38.8141 209.419 36.38C209.592 36.0925 209.745 35.8241 209.86 35.5558C210.378 34.5016 210.627 33.3899 210.627 32.2016C210.646 27.6974 206.985 24.0366 202.5 24.0366Z" fill="#214098"/>
<path d="M201.407 35.5175C201.043 35.5175 200.679 35.3834 200.392 35.0959L198.494 33.1984C197.938 32.6425 197.938 31.7225 198.494 31.1667C199.05 30.6109 199.97 30.6109 200.526 31.1667L201.446 32.0867L204.512 29.25C205.107 28.7134 206.007 28.7517 206.544 29.3267C207.081 29.9017 207.042 30.8217 206.467 31.3584L202.385 35.1342C202.097 35.3834 201.752 35.5175 201.407 35.5175Z" fill="#214098"/>
</svg>
