<svg width="47" height="46" viewBox="0 0 47 46" fill="none" xmlns="http://www.w3.org/2000/svg">
<path d="M14.7988 37.0685H11.1188C5.48376 36.666 2.95386 32.3343 2.95386 28.4818C2.95386 24.6293 5.48378 20.2785 11.0229 19.8951C11.8088 19.8185 12.4988 20.4318 12.5563 21.2368C12.6138 22.0226 12.0197 22.7126 11.2147 22.7701C7.49635 23.0385 5.82886 25.8368 5.82886 28.501C5.82886 31.1651 7.49635 33.9635 11.2147 34.2318H14.7988C15.5847 34.2318 16.2363 34.8835 16.2363 35.6693C16.2363 36.4551 15.5847 37.0685 14.7988 37.0685Z" fill="#214098"/>
<path d="M32.4507 37.0682C32.4124 37.0682 32.3932 37.0682 32.3549 37.0682C31.5691 37.0682 30.8408 36.4166 30.8408 35.6307C30.8408 34.8066 31.4541 34.1932 32.2591 34.1932C34.6166 34.1932 36.7249 33.3691 38.3733 31.8933C41.3633 29.2866 41.5549 25.5299 40.7499 22.8849C39.9449 20.2591 37.7024 17.2499 33.7924 16.7708C33.1599 16.6941 32.6615 16.2149 32.5465 15.5824C31.7799 10.9824 29.3074 7.80076 25.5508 6.65076C21.6791 5.44326 17.1557 6.63159 14.3382 9.58326C11.5974 12.4391 10.9649 16.4449 12.5557 20.8533C12.824 21.6008 12.4408 22.4249 11.6933 22.6932C10.9458 22.9616 10.1216 22.5783 9.85326 21.8308C7.91743 16.4258 8.79911 11.2508 12.2683 7.60909C15.8141 3.89076 21.5066 2.41491 26.3941 3.90991C30.8791 5.28991 34.0415 8.98908 35.1915 14.1257C39.1015 15.0074 42.2449 17.9783 43.4907 22.0799C44.8516 26.5458 43.6249 31.1458 40.2707 34.0591C38.1432 35.9758 35.364 37.0682 32.4507 37.0682Z" fill="#214098"/>
<path d="M23.5001 42.7033C19.6476 42.7033 16.0443 40.6524 14.0701 37.3366C13.8593 37.0108 13.6485 36.6275 13.476 36.2058C12.8243 34.845 12.4792 33.2925 12.4792 31.6825C12.4792 25.6066 17.4242 20.6616 23.5001 20.6616C29.5759 20.6616 34.5209 25.6066 34.5209 31.6825C34.5209 33.3116 34.176 34.845 33.486 36.2633C33.3326 36.6275 33.1218 37.0108 32.8918 37.375C30.956 40.6525 27.3526 42.7033 23.5001 42.7033ZM23.5001 23.5366C19.0151 23.5366 15.3542 27.1975 15.3542 31.6825C15.3542 32.8708 15.6034 33.9824 16.0826 34.9983C16.2359 35.3241 16.3701 35.5925 16.5234 35.8416C17.9801 38.3141 20.6442 39.8283 23.4809 39.8283C26.3176 39.8283 28.9817 38.3141 30.4192 35.88C30.5917 35.5925 30.7451 35.3241 30.8601 35.0558C31.3776 34.0016 31.6267 32.8899 31.6267 31.7016C31.6459 27.1974 27.9851 23.5366 23.5001 23.5366Z" fill="#214098"/>
<path d="M22.4074 35.0173C22.0432 35.0173 21.6791 34.8831 21.3916 34.5956L19.494 32.6981C18.9382 32.1423 18.9382 31.2223 19.494 30.6664C20.0499 30.1106 20.9699 30.1106 21.5257 30.6664L22.4458 31.5864L25.5124 28.7498C26.1066 28.2131 27.0074 28.2514 27.544 28.8264C28.0807 29.4014 28.0424 30.3215 27.4674 30.8581L23.3849 34.634C23.0974 34.8831 22.7524 35.0173 22.4074 35.0173Z" fill="#214098"/>
</svg>
