<svg width="23" height="23" viewBox="0 0 23 23" fill="none" xmlns="http://www.w3.org/2000/svg">
<g clip-path="url(#clip0_314_1265)">
<path d="M14.25 20.4375H8.75C7.83832 20.4375 6.96398 20.0753 6.31932 19.4307C5.67466 18.786 5.3125 17.9117 5.3125 17V8.75C5.3125 8.56766 5.38493 8.3928 5.51386 8.26386C5.6428 8.13493 5.81766 8.0625 6 8.0625C6.18234 8.0625 6.3572 8.13493 6.48614 8.26386C6.61507 8.3928 6.6875 8.56766 6.6875 8.75V17C6.6875 17.547 6.9048 18.0716 7.29159 18.4584C7.67839 18.8452 8.20299 19.0625 8.75 19.0625H14.25C14.797 19.0625 15.3216 18.8452 15.7084 18.4584C16.0952 18.0716 16.3125 17.547 16.3125 17V8.75C16.3125 8.56766 16.3849 8.3928 16.5139 8.26386C16.6428 8.13493 16.8177 8.0625 17 8.0625C17.1823 8.0625 17.3572 8.13493 17.4861 8.26386C17.6151 8.3928 17.6875 8.56766 17.6875 8.75V17C17.6875 17.9117 17.3253 18.786 16.6807 19.4307C16.036 20.0753 15.1617 20.4375 14.25 20.4375Z" fill="white"/>
<path d="M18.375 6.6875H4.625C4.44266 6.6875 4.2678 6.61507 4.13886 6.48614C4.00993 6.3572 3.9375 6.18234 3.9375 6C3.9375 5.81766 4.00993 5.6428 4.13886 5.51386C4.2678 5.38493 4.44266 5.3125 4.625 5.3125H18.375C18.5573 5.3125 18.7322 5.38493 18.8611 5.51386C18.9901 5.6428 19.0625 5.81766 19.0625 6C19.0625 6.18234 18.9901 6.3572 18.8611 6.48614C18.7322 6.61507 18.5573 6.6875 18.375 6.6875Z" fill="white"/>
<path d="M14.25 6.6875H8.75C8.56766 6.6875 8.3928 6.61507 8.26386 6.48614C8.13493 6.3572 8.0625 6.18234 8.0625 6V4.625C8.0625 4.07799 8.2798 3.55339 8.66659 3.16659C9.05339 2.7798 9.57799 2.5625 10.125 2.5625H12.875C13.422 2.5625 13.9466 2.7798 14.3334 3.16659C14.7202 3.55339 14.9375 4.07799 14.9375 4.625V6C14.9375 6.18234 14.8651 6.3572 14.7361 6.48614C14.6072 6.61507 14.4323 6.6875 14.25 6.6875ZM9.4375 5.3125H13.5625V4.625C13.5625 4.44266 13.4901 4.2678 13.3611 4.13886C13.2322 4.00993 13.0573 3.9375 12.875 3.9375H10.125C9.94266 3.9375 9.7678 4.00993 9.63886 4.13886C9.50993 4.2678 9.4375 4.44266 9.4375 4.625V5.3125Z" fill="white"/>
<path d="M10.125 16.3125C9.94266 16.3125 9.7678 16.2401 9.63886 16.1111C9.50993 15.9822 9.4375 15.8073 9.4375 15.625V10.8125C9.4375 10.6302 9.50993 10.4553 9.63886 10.3264C9.7678 10.1974 9.94266 10.125 10.125 10.125C10.3073 10.125 10.4822 10.1974 10.6111 10.3264C10.7401 10.4553 10.8125 10.6302 10.8125 10.8125V15.625C10.8125 15.8073 10.7401 15.9822 10.6111 16.1111C10.4822 16.2401 10.3073 16.3125 10.125 16.3125Z" fill="white"/>
<path d="M12.875 16.3125C12.6927 16.3125 12.5178 16.2401 12.3889 16.1111C12.2599 15.9822 12.1875 15.8073 12.1875 15.625V10.8125C12.1875 10.6302 12.2599 10.4553 12.3889 10.3264C12.5178 10.1974 12.6927 10.125 12.875 10.125C13.0573 10.125 13.2322 10.1974 13.3611 10.3264C13.4901 10.4553 13.5625 10.6302 13.5625 10.8125V15.625C13.5625 15.8073 13.4901 15.9822 13.3611 16.1111C13.2322 16.2401 13.0573 16.3125 12.875 16.3125Z" fill="white"/>
</g>
<defs>
<clipPath id="clip0_314_1265">
<rect width="22" height="22" fill="white" transform="translate(0.5 0.5)"/>
</clipPath>
</defs>
</svg>
