<svg width="23" height="22" viewBox="0 0 23 22" fill="none" xmlns="http://www.w3.org/2000/svg">
<path fill-rule="evenodd" clip-rule="evenodd" d="M6.1339 1.8335C3.85081 1.8335 2 3.68431 2 5.9674V16.0329C2 18.316 3.85081 20.1668 6.1339 20.1668H11.0292C11.4593 20.1668 11.8079 19.8182 11.8079 19.3881C11.8079 18.958 11.4593 18.6094 11.0292 18.6094H6.1339C4.71097 18.6094 3.55745 17.4559 3.55745 16.0329V5.9674C3.55745 4.54446 4.71097 3.39095 6.1339 3.39095H15.9245C17.3474 3.39095 18.5008 4.54446 18.5008 5.9674V11.0002C18.5008 11.4303 18.8495 11.7789 19.2796 11.7789C19.7097 11.7789 20.0583 11.4303 20.0583 11.0002V5.9674C20.0583 3.68431 18.2075 1.8335 15.9245 1.8335H6.1339ZM6.58569 10.2213C6.15561 10.2213 5.80696 10.5699 5.80696 11C5.80696 11.4301 6.15561 11.7787 6.58569 11.7787H9.33491C9.76501 11.7787 10.1136 11.4301 10.1136 11C10.1136 10.5699 9.76501 10.2213 9.33491 10.2213H6.58569ZM5.80696 7.33534C5.80696 6.90526 6.15561 6.5566 6.58569 6.5566H12.0826C12.5127 6.5566 12.8613 6.90526 12.8613 7.33534C12.8613 7.76542 12.5127 8.11407 12.0826 8.11407H6.58569C6.15561 8.11407 5.80696 7.76542 5.80696 7.33534ZM17.9799 12.1838C17.4967 11.6925 16.7133 11.6925 16.2302 12.1838L12.7868 15.6844C12.5215 15.9542 12.391 16.3317 12.4318 16.7107L12.6288 18.5399C12.68 19.0161 13.0498 19.3922 13.5182 19.4442L15.3174 19.6444C15.6903 19.6859 16.0616 19.5532 16.3269 19.2835L19.7702 15.7828C20.2533 15.2915 20.2533 14.4951 19.7702 14.0039L17.9799 12.1838ZM13.9832 16.6889L17.105 13.515L18.4608 14.8933L15.339 18.0672L14.117 17.9313L13.9832 16.6889Z" fill="white"/>
</svg>
