<svg width="110" height="50" viewBox="0 0 110 50" fill="none" xmlns="http://www.w3.org/2000/svg">
<rect x="14.1" y="9" width="82" height="32" rx="10" fill="#214098"/>
<path fill-rule="evenodd" clip-rule="evenodd" d="M32.0671 15.8333C29.784 15.8333 27.9332 17.6841 27.9332 19.9672V30.0327C27.9332 32.3157 29.784 34.1666 32.0671 34.1666H36.9624C37.3925 34.1666 37.7411 33.818 37.7411 33.3879C37.7411 32.9578 37.3925 32.6092 36.9624 32.6092H32.0671C30.6442 32.6092 29.4907 31.4556 29.4907 30.0327V19.9672C29.4907 18.5442 30.6442 17.3907 32.0671 17.3907H41.8577C43.2806 17.3907 44.4341 18.5442 44.4341 19.9672V24.9999C44.4341 25.43 44.7828 25.7786 45.2129 25.7786C45.6429 25.7786 45.9916 25.43 45.9916 24.9999V19.9672C45.9916 17.6841 44.1407 15.8333 41.8577 15.8333H32.0671ZM32.5189 24.221C32.0888 24.221 31.7402 24.5696 31.7402 24.9997C31.7402 25.4298 32.0888 25.7784 32.5189 25.7784H35.2681C35.6982 25.7784 36.0468 25.4298 36.0468 24.9997C36.0468 24.5696 35.6982 24.221 35.2681 24.221H32.5189ZM31.7402 21.3351C31.7402 20.905 32.0888 20.5564 32.5189 20.5564H38.0158C38.4459 20.5564 38.7946 20.905 38.7946 21.3351C38.7946 21.7652 38.4459 22.1138 38.0158 22.1138H32.5189C32.0888 22.1138 31.7402 21.7652 31.7402 21.3351ZM43.9131 26.1835C43.43 25.6923 42.6466 25.6923 42.1634 26.1835L38.72 29.6842C38.4547 29.954 38.3242 30.3314 38.365 30.7105L38.562 32.5397C38.6132 33.0159 38.983 33.3919 39.4514 33.444L41.2507 33.6442C41.6236 33.6857 41.9948 33.553 42.2601 33.2833L45.7035 29.7825C46.1866 29.2913 46.1866 28.4949 45.7035 28.0037L43.9131 26.1835ZM39.9165 30.6887L43.0383 27.5148L44.394 28.8931L41.2722 32.067L40.0502 31.931L39.9165 30.6887Z" fill="white"/>
<path d="M60.896 22.22V23.924H63.644V25.508H60.896V27.356H64.004V29H58.844V20.576H64.004V22.22H60.896ZM68.4922 20.576C69.3802 20.576 70.1562 20.752 70.8202 21.104C71.4842 21.456 71.9962 21.952 72.3562 22.592C72.7242 23.224 72.9082 23.956 72.9082 24.788C72.9082 25.612 72.7242 26.344 72.3562 26.984C71.9962 27.624 71.4802 28.12 70.8082 28.472C70.1442 28.824 69.3722 29 68.4922 29H65.3362V20.576H68.4922ZM68.3602 27.224C69.1362 27.224 69.7402 27.012 70.1722 26.588C70.6042 26.164 70.8202 25.564 70.8202 24.788C70.8202 24.012 70.6042 23.408 70.1722 22.976C69.7402 22.544 69.1362 22.328 68.3602 22.328H67.3882V27.224H68.3602ZM76.1069 20.576V29H74.0549V20.576H76.1069ZM83.654 20.576V22.22H81.422V29H79.37V22.22H77.138V20.576H83.654Z" fill="white"/>
</svg>
