<svg width="21" height="21" viewBox="0 0 21 21" fill="none" xmlns="http://www.w3.org/2000/svg">
<g clip-path="url(#clip0_181_710)">
<path d="M18.1075 3.22065C17.505 2.61815 16.7412 2.23628 15.8994 2.11628C14.6737 1.94253 13.465 2.34565 12.5906 3.22065C12.3462 3.46503 12.3462 3.86065 12.5906 4.10503C12.6037 4.11815 12.6206 4.12253 12.6344 4.13378C12.6456 4.1469 12.65 4.16378 12.6631 4.1769L14.4656 5.9794L5.15562 15.2894L3.7225 13.8563L11.6206 5.95815C11.865 5.71378 11.865 5.31878 11.6206 5.0744C11.3762 4.83003 10.9812 4.83003 10.7369 5.0744L2.39812 13.4132L2.39625 13.4144L1.9325 13.8782C1.87375 13.9369 1.82813 14.0069 1.79688 14.0825C1.76625 14.1588 1.75 14.2394 1.75 14.32V18.9532C1.75 19.2988 2.03 19.5782 2.375 19.5782H7.00875C7.17437 19.5782 7.33375 19.5125 7.45062 19.395L18.1075 8.73815C19.6281 7.2169 19.6281 4.7419 18.1075 3.22065ZM15.7237 3.3544C16.295 3.43565 16.8137 3.69503 17.2231 4.1044C18.1037 4.98565 18.2269 6.33378 17.6069 7.35378L15.7906 5.5369L13.9681 3.7144C14.4875 3.39628 15.1019 3.26628 15.7237 3.3544ZM3 18.3282V14.9019L4.7125 16.6144L4.71312 16.6157L4.71437 16.6163L6.42625 18.3282H3ZM6.03937 16.1732L15.3487 6.86315L16.7819 8.29628L7.47187 17.6063L6.03937 16.1732Z" fill="#68B14E"/>
</g>
<defs>
<clipPath id="clip0_181_710">
<rect width="20" height="20" fill="white" transform="translate(0.5 0.828125)"/>
</clipPath>
</defs>
</svg>
