<svg width="83" height="34" viewBox="0 0 83 34" fill="none" xmlns="http://www.w3.org/2000/svg">
<rect x="0.166748" width="82" height="34" rx="10" fill="#214098"/>
<path fill-rule="evenodd" clip-rule="evenodd" d="M18.1339 7.8335C15.8508 7.8335 14 9.68431 14 11.9674V22.0329C14 24.316 15.8508 26.1668 18.1339 26.1668H23.0292C23.4593 26.1668 23.8079 25.8182 23.8079 25.3881C23.8079 24.958 23.4593 24.6094 23.0292 24.6094H18.1339C16.711 24.6094 15.5575 23.4559 15.5575 22.0329V11.9674C15.5575 10.5445 16.711 9.39095 18.1339 9.39095H27.9245C29.3474 9.39095 30.5008 10.5445 30.5008 11.9674V17.0002C30.5008 17.4303 30.8495 17.7789 31.2796 17.7789C31.7097 17.7789 32.0583 17.4303 32.0583 17.0002V11.9674C32.0583 9.68431 30.2075 7.8335 27.9245 7.8335H18.1339ZM18.5857 16.2213C18.1556 16.2213 17.807 16.5699 17.807 17C17.807 17.4301 18.1556 17.7787 18.5857 17.7787H21.3349C21.765 17.7787 22.1136 17.4301 22.1136 17C22.1136 16.5699 21.765 16.2213 21.3349 16.2213H18.5857ZM17.807 13.3353C17.807 12.9053 18.1556 12.5566 18.5857 12.5566H24.0826C24.5127 12.5566 24.8613 12.9053 24.8613 13.3353C24.8613 13.7654 24.5127 14.1141 24.0826 14.1141H18.5857C18.1556 14.1141 17.807 13.7654 17.807 13.3353ZM29.9799 18.1838C29.4967 17.6925 28.7133 17.6925 28.2302 18.1838L24.7868 21.6844C24.5215 21.9542 24.391 22.3317 24.4318 22.7107L24.6288 24.5399C24.68 25.0161 25.0498 25.3922 25.5182 25.4442L27.3174 25.6444C27.6903 25.6859 28.0616 25.5532 28.3269 25.2835L31.7702 21.7828C32.2533 21.2915 32.2533 20.4951 31.7702 20.0039L29.9799 18.1838ZM25.9832 22.6889L29.105 19.515L30.4608 20.8933L27.339 24.0672L26.117 23.9313L25.9832 22.6889Z" fill="white"/>
<path d="M46.9627 14.22V15.924H49.7107V17.508H46.9627V19.356H50.0707V21H44.9107V12.576H50.0707V14.22H46.9627ZM54.5589 12.576C55.4469 12.576 56.2229 12.752 56.8869 13.104C57.5509 13.456 58.0629 13.952 58.4229 14.592C58.7909 15.224 58.9749 15.956 58.9749 16.788C58.9749 17.612 58.7909 18.344 58.4229 18.984C58.0629 19.624 57.5469 20.12 56.8749 20.472C56.2109 20.824 55.4389 21 54.5589 21H51.4029V12.576H54.5589ZM54.4269 19.224C55.2029 19.224 55.8069 19.012 56.2389 18.588C56.6709 18.164 56.8869 17.564 56.8869 16.788C56.8869 16.012 56.6709 15.408 56.2389 14.976C55.8069 14.544 55.2029 14.328 54.4269 14.328H53.4549V19.224H54.4269ZM62.1737 12.576V21H60.1217V12.576H62.1737ZM69.7207 12.576V14.22H67.4887V21H65.4367V14.22H63.2047V12.576H69.7207Z" fill="white"/>
</svg>
