<svg width="51" height="51" viewBox="0 0 51 51" fill="none" xmlns="http://www.w3.org/2000/svg">
<path d="M45.2168 11.957L34.3281 1.23437C34.1816 1.08789 33.9766 1 33.7617 1H13.6738C10.6367 1 8.17578 3.59766 8.17578 6.80078V28.207H5.5V42.7188H8.17578V44.0273C8.17578 47.2207 10.6465 49.8281 13.6738 49.8281H39.9824C43.0195 49.8281 45.4805 47.2305 45.4805 44.0273V12.5918C45.4805 12.3574 45.3926 12.123 45.2168 11.957ZM33.4883 2.79688L42.9609 12.1328H37.8047C35.4219 12.1328 33.4883 10.2285 33.4883 7.89453V2.79688ZM43.8203 44.0273C43.8203 46.2637 42.1016 48.0801 39.9824 48.0801H13.6738C11.5547 48.0801 9.83594 46.2637 9.83594 44.0273V42.7188H28.0977C31.6621 42.7188 34.543 39.4668 34.543 35.4629C34.543 31.459 31.6523 28.207 28.0977 28.207H9.83594V6.80078C9.83594 4.56445 11.5547 2.74805 13.6738 2.74805H31.8281V7.89453C31.8281 11.1953 34.5039 13.8809 37.8047 13.8809H43.8203V44.0273ZM10.6367 39.125V31.8008H13.4395C14.25 31.8008 14.8848 32.0059 15.334 32.4258C15.7832 32.8457 16.0176 33.3926 16.0176 34.0762C16.0176 34.7598 15.793 35.3164 15.334 35.7266C14.875 36.1367 14.2402 36.3516 13.4395 36.3516H11.8574V39.125H10.6367ZM17.502 39.125V31.8008H19.9238C20.8516 31.8008 21.6035 32.0937 22.1895 32.6699C22.7754 33.2461 23.0586 33.998 23.0586 34.9062V36.0195C23.0586 36.9375 22.7656 37.6797 22.1895 38.2559C21.6035 38.832 20.8516 39.125 19.9238 39.125H17.502ZM28.8887 35.0234V36H25.9395V39.125H24.709V31.8008H29.3965V32.7773H25.9297V35.0137H28.8887V35.0234Z" fill="#ED1C24"/>
<path d="M14.4648 35.0039C14.6895 34.7598 14.8066 34.457 14.8066 34.0859C14.8066 33.7148 14.6895 33.4023 14.4648 33.1582C14.2402 32.9141 13.8984 32.7871 13.4395 32.7871H11.8574V35.375H13.4395C13.8984 35.3652 14.2305 35.248 14.4648 35.0039Z" fill="#ED1C24"/>
<path d="M19.9238 32.7871H18.7227V38.1582H19.9238C20.5098 38.1582 20.9785 37.9629 21.3203 37.5625C21.6621 37.1621 21.8379 36.6543 21.8379 36.0293V34.9063C21.8379 34.291 21.6621 33.7832 21.3203 33.3828C20.9785 32.9824 20.5098 32.7871 19.9238 32.7871Z" fill="#ED1C24"/>
</svg>
