<svg width="51" height="51" viewBox="0 0 51 51" fill="none" xmlns="http://www.w3.org/2000/svg">
<g clip-path="url(#clip0_181_729)">
<path d="M13 0.287354C11.2812 0.287354 9.875 1.6936 9.875 3.41235V47.1624C9.875 48.8811 11.2812 50.2874 13 50.2874H44.25C45.9688 50.2874 47.375 48.8811 47.375 47.1624V12.7874L34.875 0.287354H13Z" fill="#D2D2D2"/>
<path d="M38 12.7874H47.375L34.875 0.287354V9.66235C34.875 11.3811 36.2812 12.7874 38 12.7874Z" fill="#A2A7AA"/>
<path d="M47.375 22.1624L38 12.7874H47.375V22.1624Z" fill="#BDC6CF"/>
<path d="M41.125 40.9124C41.125 41.7717 40.4219 42.4749 39.5625 42.4749H5.1875C4.32812 42.4749 3.625 41.7717 3.625 40.9124V25.2874C3.625 24.428 4.32812 23.7249 5.1875 23.7249H39.5625C40.4219 23.7249 41.125 24.428 41.125 25.2874V40.9124Z" fill="#68B14E"/>
<path d="M9.56396 29.8921C9.56396 29.4796 9.8874 29.0281 10.4124 29.0281H13.2999C14.9233 29.0281 16.3858 30.1156 16.3858 32.2015C16.3858 34.1765 14.9233 35.275 13.2999 35.275H11.2108V36.925C11.2108 37.4765 10.864 37.7875 10.4124 37.7875C9.9999 37.7875 9.56396 37.4765 9.56396 36.925V29.8921ZM11.2108 30.6031V33.714H13.2983C14.1343 33.714 14.7968 32.9765 14.7968 32.2015C14.7968 31.3265 14.1343 30.6031 13.2983 30.6031H11.2108Z" fill="white"/>
<path d="M17.9781 30.0171C17.9781 29.5656 18.0781 29.1296 18.7281 29.1296C19.1766 29.1296 19.2781 29.2421 19.6141 29.5656L23.7484 34.739V29.8921C23.7484 29.4796 24.1094 29.0281 24.5359 29.0281C24.9859 29.0281 25.4219 29.4796 25.4219 29.8921V36.925C25.4219 37.4765 25.0844 37.6859 24.7594 37.7875C24.3234 37.7875 24.1094 37.6875 23.7484 37.3515L19.6141 32.1031V36.9265C19.6141 37.4781 19.2766 37.789 18.8266 37.789C18.3766 37.789 17.9766 37.4781 17.9766 36.9265V30.0171H17.9781Z" fill="white"/>
<path d="M34.8201 36.8265C33.9326 37.5625 32.8451 37.8765 31.7467 37.8765C29.1217 37.8765 27.2607 36.3765 27.2607 33.4031C27.2607 30.8796 29.2232 28.9187 31.8576 28.9187C32.8451 28.9187 33.9311 29.2562 34.7061 30.0187C35.4686 30.7671 34.3686 31.8796 33.6201 31.2187C33.1576 30.7671 32.5076 30.4312 31.8576 30.4312C30.3467 30.4312 28.8857 31.6421 28.8857 33.4031C28.8857 35.2531 30.1092 36.3765 31.7467 36.3765C32.5076 36.3765 33.1576 36.1515 33.6201 35.814V34.2796H31.7467C30.6342 34.2796 30.7467 32.7531 31.7467 32.7531H34.2451C34.7076 32.7531 35.1311 33.1046 35.1311 33.4921V36.1531C35.1311 36.3765 35.0326 36.5875 34.8201 36.8265Z" fill="white"/>
<path d="M39.5625 42.4749H9.875V44.0374H39.5625C40.4219 44.0374 41.125 43.3342 41.125 42.4749V40.9124C41.125 41.7717 40.4219 42.4749 39.5625 42.4749Z" fill="#BDC6CF"/>
</g>
<defs>
<clipPath id="clip0_181_729">
<rect width="50" height="50" fill="white" transform="translate(0.5 0.287354)"/>
</clipPath>
</defs>
</svg>
