<svg width="17" height="17" viewBox="0 0 17 17" fill="none" xmlns="http://www.w3.org/2000/svg">
<path d="M12.2289 10.843C13.1972 9.52169 13.6308 7.88349 13.4432 6.25615C13.2555 4.62881 12.4603 3.13234 11.2166 2.06613C9.97298 0.999923 8.37261 0.442605 6.7357 0.505679C5.09878 0.568752 3.54604 1.24756 2.38813 2.40631C1.23021 3.56505 0.55251 5.11828 0.490608 6.75524C0.428707 8.39219 0.987169 9.99216 2.05427 11.235C3.12137 12.4779 4.6184 13.2721 6.24588 13.4586C7.87335 13.6451 9.51124 13.2102 10.8319 12.241H10.8309C10.8609 12.281 10.8929 12.319 10.9289 12.356L14.7789 16.206C14.9664 16.3936 15.2207 16.4991 15.486 16.4992C15.7513 16.4993 16.0057 16.394 16.1934 16.2065C16.381 16.019 16.4865 15.7646 16.4866 15.4994C16.4867 15.2341 16.3814 14.9796 16.1939 14.792L12.3439 10.942C12.3081 10.9058 12.2697 10.8724 12.2289 10.842V10.843ZM12.4869 6.999C12.4869 7.72127 12.3446 8.43647 12.0682 9.10376C11.7918 9.77105 11.3867 10.3774 10.8759 10.8881C10.3652 11.3988 9.75891 11.8039 9.09162 12.0803C8.42433 12.3567 7.70913 12.499 6.98686 12.499C6.26459 12.499 5.54939 12.3567 4.8821 12.0803C4.21481 11.8039 3.60849 11.3988 3.09777 10.8881C2.58705 10.3774 2.18192 9.77105 1.90552 9.10376C1.62912 8.43647 1.48686 7.72127 1.48686 6.999C1.48686 5.54031 2.06632 4.14136 3.09777 3.10991C4.12922 2.07846 5.52817 1.499 6.98686 1.499C8.44555 1.499 9.8445 2.07846 10.8759 3.10991C11.9074 4.14136 12.4869 5.54031 12.4869 6.999Z" fill="#8A8A8A"/>
</svg>
