<svg width="27" height="26" viewBox="0 0 27 26" fill="none" xmlns="http://www.w3.org/2000/svg">
<g clip-path="url(#clip0_94_113)">
<path d="M24.9692 12.8799L12.848 17.8261C11.9238 18.1987 10.8922 18.178 10.0111 17.764L4.03643 14.8667L3.26274 16.3361L9.25888 19.2334C9.9681 19.5646 10.7418 19.7301 11.5155 19.7301C12.2032 19.7301 12.891 19.606 13.5142 19.3369L25.6354 14.4114C26.2802 14.1423 26.7745 13.6456 27.0324 13.0248C27.2903 12.3832 27.2688 11.7002 26.9679 11.0794C26.3876 9.87904 24.8617 9.32026 23.5508 9.85834L22.7986 10.1688L19.145 11.6589L19.8112 13.1903L23.4648 11.7002L24.217 11.3898C24.6683 11.2036 25.2056 11.3691 25.399 11.783C25.5065 11.99 25.5065 12.2176 25.4205 12.4246C25.3346 12.6315 25.1841 12.7971 24.9692 12.8799Z" fill="white"/>
<path d="M1.93026 11.6383L3.95047 10.024C5.11101 9.17549 6.52945 8.80297 7.96939 8.96853C8.54966 9.03062 9.08695 9.17549 9.60275 9.40314L15.1691 11.7831C15.3195 11.8452 15.4484 11.9487 15.5344 12.0936C15.6849 12.3212 15.7063 12.611 15.5989 12.88C15.5559 12.9628 15.5129 13.0249 15.4699 13.087C15.212 13.356 14.8252 13.4388 14.4813 13.2939L10.183 11.452L9.47379 12.9628L13.7721 14.8047C14.116 14.9496 14.4813 15.0323 14.8252 15.0323C15.5559 15.0323 16.2436 14.7426 16.7594 14.1838C16.9314 13.9976 17.0818 13.7906 17.1893 13.5629C17.5331 12.7972 17.4687 11.928 17.0173 11.2244C16.7379 10.8104 16.3511 10.4793 15.8998 10.2931L10.312 7.89236C9.64573 7.60263 8.91502 7.41637 8.1843 7.33358C6.29305 7.12663 4.42328 7.62332 2.91887 8.72019L0.210938 10.8518V19.9372H1.93026V11.6383Z" fill="white"/>
</g>
<defs>
<clipPath id="clip0_94_113">
<rect width="27" height="26" fill="white"/>
</clipPath>
</defs>
</svg>
