<svg width="16" height="16" viewBox="0 0 16 16" fill="none" xmlns="http://www.w3.org/2000/svg">
<path d="M8.21719 0.95625C8.15903 0.900618 8.08165 0.869568 8.00117 0.869568C7.92069 0.869568 7.84331 0.900618 7.78516 0.95625L0.59375 7.82617C0.563209 7.85539 0.538912 7.89049 0.522328 7.92937C0.505744 7.96824 0.497218 8.01008 0.497266 8.05234L0.496094 14.5C0.496094 14.8315 0.62779 15.1495 0.86221 15.3839C1.09663 15.6183 1.41457 15.75 1.74609 15.75H5.5C5.66576 15.75 5.82473 15.6842 5.94194 15.5669C6.05915 15.4497 6.125 15.2908 6.125 15.125V9.8125C6.125 9.72962 6.15792 9.65014 6.21653 9.59153C6.27513 9.53292 6.35462 9.5 6.4375 9.5H9.5625C9.64538 9.5 9.72487 9.53292 9.78347 9.59153C9.84208 9.65014 9.875 9.72962 9.875 9.8125V15.125C9.875 15.2908 9.94085 15.4497 10.0581 15.5669C10.1753 15.6842 10.3342 15.75 10.5 15.75H14.2523C14.5839 15.75 14.9018 15.6183 15.1362 15.3839C15.3706 15.1495 15.5023 14.8315 15.5023 14.5V8.05234C15.5024 8.01008 15.4939 7.96824 15.4773 7.92937C15.4607 7.89049 15.4364 7.85539 15.4059 7.82617L8.21719 0.95625Z" fill="white"/>
</svg>
