<svg width="20" height="20" viewBox="0 0 20 20" fill="none" xmlns="http://www.w3.org/2000/svg">
<path fill-rule="evenodd" clip-rule="evenodd" d="M5.06713 0.833252C2.78404 0.833252 0.933228 2.68407 0.933228 4.96715V15.0327C0.933228 17.3157 2.78404 19.1666 5.06713 19.1666H9.96241C10.3925 19.1666 10.7411 18.818 10.7411 18.3879C10.7411 17.9578 10.3925 17.6092 9.96241 17.6092H5.06713C3.6442 17.6092 2.49068 16.4556 2.49068 15.0327V4.96715C2.49068 3.54422 3.6442 2.39071 5.06713 2.39071H14.8577C16.2806 2.39071 17.4341 3.54422 17.4341 4.96715V9.99992C17.4341 10.43 17.7828 10.7786 18.2129 10.7786C18.6429 10.7786 18.9916 10.43 18.9916 9.99992V4.96715C18.9916 2.68407 17.1407 0.833252 14.8577 0.833252H5.06713ZM5.51892 9.22103C5.08883 9.22103 4.74019 9.56963 4.74019 9.99973C4.74019 10.4298 5.08883 10.7784 5.51892 10.7784H8.26814C8.69824 10.7784 9.04685 10.4298 9.04685 9.99973C9.04685 9.56963 8.69824 9.22103 8.26814 9.22103H5.51892ZM4.74019 6.33509C4.74019 5.90501 5.08883 5.55636 5.51892 5.55636H11.0158C11.4459 5.55636 11.7946 5.90501 11.7946 6.33509C11.7946 6.76518 11.4459 7.11382 11.0158 7.11382H5.51892C5.08883 7.11382 4.74019 6.76518 4.74019 6.33509ZM16.9131 11.1835C16.43 10.6923 15.6466 10.6923 15.1634 11.1835L11.72 14.6842C11.4547 14.954 11.3242 15.3314 11.365 15.7105L11.562 17.5397C11.6132 18.0159 11.983 18.3919 12.4514 18.444L14.2507 18.6442C14.6236 18.6857 14.9948 18.553 15.2601 18.2833L18.7035 14.7825C19.1866 14.2913 19.1866 13.4949 18.7035 13.0037L16.9131 11.1835ZM12.9165 15.6887L16.0383 12.5148L17.394 13.8931L14.2722 17.067L13.0502 16.931L12.9165 15.6887Z" fill="white"/>
</svg>
