<svg width="23" height="24" viewBox="0 0 23 24" fill="none" xmlns="http://www.w3.org/2000/svg">
<path d="M20.0938 1.84375H18.9219V1.64844C18.9219 1.28584 18.7778 0.938087 18.5214 0.68169C18.265 0.425293 17.9173 0.28125 17.5547 0.28125C17.1921 0.28125 16.8443 0.425293 16.5879 0.68169C16.3315 0.938087 16.1875 1.28584 16.1875 1.64844V1.84375H12.8672V1.64844C12.8672 1.28584 12.7231 0.938087 12.4667 0.68169C12.2104 0.425293 11.8626 0.28125 11.5 0.28125C11.1374 0.28125 10.7896 0.425293 10.5333 0.68169C10.2769 0.938087 10.1328 1.28584 10.1328 1.64844V1.84375H6.8125V1.64844C6.8125 1.28584 6.66846 0.938087 6.41206 0.68169C6.15566 0.425293 5.80791 0.28125 5.44531 0.28125C5.08271 0.28125 4.73496 0.425293 4.47856 0.68169C4.22217 0.938087 4.07812 1.28584 4.07812 1.64844V1.84375H2.90625C2.38825 1.84375 1.89146 2.04953 1.52518 2.41581C1.1589 2.78209 0.953125 3.27887 0.953125 3.79688V21.7656C0.953125 22.2836 1.1589 22.7804 1.52518 23.1467C1.89146 23.513 2.38825 23.7188 2.90625 23.7188H20.0938C20.6118 23.7188 21.1085 23.513 21.4748 23.1467C21.8411 22.7804 22.0469 22.2836 22.0469 21.7656V3.79688C22.0469 3.27887 21.8411 2.78209 21.4748 2.41581C21.1085 2.04953 20.6118 1.84375 20.0938 1.84375ZM16.9688 1.64844C16.9688 1.49304 17.0305 1.344 17.1404 1.23412C17.2503 1.12423 17.3993 1.0625 17.5547 1.0625C17.7101 1.0625 17.8591 1.12423 17.969 1.23412C18.0789 1.344 18.1406 1.49304 18.1406 1.64844V3.21094C18.1406 3.36634 18.0789 3.51537 17.969 3.62526C17.8591 3.73514 17.7101 3.79688 17.5547 3.79688C17.3993 3.79688 17.2503 3.73514 17.1404 3.62526C17.0305 3.51537 16.9688 3.36634 16.9688 3.21094V1.64844ZM10.9141 1.64844C10.9141 1.49304 10.9758 1.344 11.0857 1.23412C11.1956 1.12423 11.3446 1.0625 11.5 1.0625C11.6554 1.0625 11.8044 1.12423 11.9143 1.23412C12.0242 1.344 12.0859 1.49304 12.0859 1.64844V3.21094C12.0859 3.36634 12.0242 3.51537 11.9143 3.62526C11.8044 3.73514 11.6554 3.79688 11.5 3.79688C11.3446 3.79688 11.1956 3.73514 11.0857 3.62526C10.9758 3.51537 10.9141 3.36634 10.9141 3.21094V1.64844ZM4.85938 1.64844C4.85938 1.49304 4.92111 1.344 5.03099 1.23412C5.14088 1.12423 5.28991 1.0625 5.44531 1.0625C5.60071 1.0625 5.74975 1.12423 5.85963 1.23412C5.96952 1.344 6.03125 1.49304 6.03125 1.64844V3.21094C6.03125 3.36634 5.96952 3.51537 5.85963 3.62526C5.74975 3.73514 5.60071 3.79688 5.44531 3.79688C5.28991 3.79688 5.14088 3.73514 5.03099 3.62526C4.92111 3.51537 4.85938 3.36634 4.85938 3.21094V1.64844ZM17.75 20.8242V19.0312C17.75 18.7204 17.8735 18.4224 18.0932 18.2026C18.313 17.9828 18.6111 17.8594 18.9219 17.8594H20.7148L17.75 20.8242ZM21.2656 16.6875C21.2656 16.7911 21.2245 16.8905 21.1512 16.9637C21.078 17.037 20.9786 17.0781 20.875 17.0781H18.9219C18.4039 17.0781 17.9071 17.2839 17.5408 17.6502C17.1745 18.0165 16.9688 18.5132 16.9688 19.0312V20.9844C16.9688 21.088 16.9276 21.1873 16.8543 21.2606C16.7811 21.3338 16.6817 21.375 16.5781 21.375L2.90625 21.3516C2.59545 21.3516 2.29738 21.2281 2.07761 21.0083C1.85784 20.7886 1.73438 20.4905 1.73438 20.1797V7.3125H21.2656V16.6875Z" fill="white"/>
</svg>
