<svg width="30" height="30" viewBox="0 0 30 30" fill="none" xmlns="http://www.w3.org/2000/svg">
<g clip-path="url(#clip0_94_149)">
<path d="M23.1232 18.8727C22.6442 18.6597 22.1441 18.5012 21.6316 18.3998C21.2853 18.3166 20.9448 18.2098 20.6123 18.0803C20.4142 18.0092 20.2354 17.8909 20.0902 17.7352C19.9787 17.6 19.921 17.4265 19.9286 17.2495C19.9218 17.1212 19.9481 16.9933 20.0049 16.8788C20.0616 16.7643 20.1468 16.6673 20.2518 16.5976C20.5218 16.4325 20.833 16.3525 21.1468 16.3676C21.4524 16.356 21.7547 16.4359 22.0169 16.5976C22.121 16.6582 22.2113 16.7408 22.2821 16.84C22.3528 16.9391 22.4022 17.0525 22.4271 17.1728C22.4507 17.2331 22.4923 17.2842 22.5459 17.3187C22.5995 17.3531 22.6624 17.3692 22.7255 17.3645H23.7075C23.7373 17.3664 23.7672 17.3617 23.7952 17.3508C23.8232 17.3399 23.8486 17.323 23.8697 17.3013C23.8909 17.2795 23.9073 17.2534 23.9179 17.2247C23.9285 17.1959 23.933 17.1651 23.9312 17.1344C23.9081 16.8465 23.814 16.5694 23.6577 16.3292C23.4691 16.0333 23.2185 15.7844 22.9243 15.6007C22.5722 15.3803 22.1778 15.2407 21.7683 15.1917V14.4376C21.7701 14.4036 21.7649 14.3695 21.7531 14.3377C21.7412 14.3058 21.7229 14.2769 21.6995 14.2528C21.676 14.2287 21.6479 14.2099 21.6169 14.1977C21.586 14.1855 21.5528 14.1802 21.5197 14.182H20.8733C20.8095 14.1795 20.7472 14.2024 20.6993 14.2459C20.6739 14.2703 20.6541 14.3001 20.6412 14.3332C20.6283 14.3663 20.6227 14.402 20.6247 14.4376V15.1789C20.0297 15.2262 19.4663 15.4732 19.0212 15.8819C18.8328 16.0605 18.6833 16.2782 18.5826 16.5205C18.4819 16.7628 18.4323 17.0243 18.437 17.2878C18.4213 17.5515 18.4646 17.8155 18.5638 18.0592C18.6629 18.303 18.8152 18.5201 19.0088 18.6938C19.5403 19.0921 20.152 19.3629 20.7988 19.4862C21.2877 19.6225 21.6606 19.7376 21.9175 19.8313C22.1289 19.8989 22.3239 20.0122 22.4893 20.1636C22.5512 20.227 22.5998 20.3028 22.6319 20.3864C22.664 20.47 22.6789 20.5595 22.6757 20.6493C22.679 20.788 22.6461 20.9252 22.5805 21.0465C22.515 21.1678 22.4191 21.269 22.3028 21.3395C21.9737 21.5298 21.5983 21.6185 21.2214 21.5951C20.8702 21.6141 20.5209 21.5298 20.2145 21.3522C19.9868 21.2139 19.8148 20.9963 19.7297 20.7387C19.6988 20.6795 19.6565 20.6274 19.6054 20.5854C19.5445 20.5673 19.4799 20.5673 19.419 20.5854H18.4867C18.457 20.5844 18.4274 20.5896 18.3997 20.6006C18.3719 20.6116 18.3466 20.6281 18.3251 20.6493C18.2855 20.6899 18.2631 20.7451 18.263 20.8026C18.2787 21.1317 18.3819 21.4499 18.5613 21.7229C18.7671 22.0314 19.0449 22.2819 19.3693 22.4514C19.7561 22.6573 20.1784 22.7833 20.6123 22.8221V23.5634C20.6103 23.599 20.6159 23.6347 20.6288 23.6678C20.6417 23.7009 20.6615 23.7307 20.6869 23.7551C20.7348 23.7986 20.7971 23.8215 20.8609 23.819H21.5073C21.5404 23.8209 21.5735 23.8155 21.6045 23.8033C21.6355 23.7911 21.6636 23.7724 21.6871 23.7482C21.7105 23.7241 21.7288 23.6952 21.7406 23.6634C21.7525 23.6315 21.7577 23.5974 21.7559 23.5634V22.8221C22.3957 22.7849 23.0083 22.5437 23.5086 22.1319C23.72 21.9469 23.888 21.7152 23.9999 21.454C24.1118 21.1928 24.1649 20.909 24.155 20.6237C24.1688 20.2597 24.078 19.8997 23.8939 19.5884C23.7061 19.2814 23.4394 19.0337 23.1232 18.8727Z" fill="white"/>
<path d="M21.2214 10.4755H18.0517V7.19069C18.0517 7.02121 17.9862 6.85866 17.8696 6.73881C17.7531 6.61896 17.595 6.55164 17.4301 6.55164H16.6595V3.13906C16.6595 2.96957 16.594 2.80702 16.4774 2.68718C16.3609 2.56733 16.2028 2.5 16.0379 2.5H1.12152C0.956681 2.5 0.798595 2.56733 0.682038 2.68718C0.565481 2.80702 0.5 2.96957 0.5 3.13906L0.5 7.06288C0.5 7.14681 0.516076 7.22991 0.54731 7.30744C0.578544 7.38497 0.624325 7.45542 0.682038 7.51477C0.739751 7.57411 0.808267 7.62118 0.883673 7.6533C0.959079 7.68541 1.0399 7.70194 1.12152 7.70194H1.94192V11.1145C1.94192 11.284 2.0074 11.4466 2.12396 11.5664C2.24052 11.6862 2.3986 11.7536 2.56344 11.7536H3.18496V14.4121H1.3204C1.15557 14.4121 0.997481 14.4794 0.880924 14.5992C0.764367 14.7191 0.698886 14.8816 0.698886 15.0511V26.7843C0.698886 26.9537 0.764367 27.1163 0.880924 27.2361C0.997481 27.356 1.15557 27.4233 1.3204 27.4233H16.2368C16.4017 27.4233 16.5597 27.356 16.6763 27.2361C16.7929 27.1163 16.8583 26.9537 16.8583 26.7843V26.1324C17.9441 26.8551 19.1794 27.3061 20.4652 27.4493C21.751 27.5926 23.0516 27.4241 24.2627 26.9573C25.4737 26.4905 26.5616 25.7385 27.439 24.7615C28.3165 23.7845 28.9591 22.6097 29.3153 21.3313C29.6716 20.0529 29.7315 18.7064 29.4905 17.3999C29.2494 16.0933 28.7139 14.863 27.927 13.8076C27.1401 12.7522 26.1237 11.9011 24.9592 11.3224C23.7947 10.7438 22.5146 10.4537 21.2214 10.4755ZM1.74303 3.77812H15.4164V6.42382H1.74303V3.77812ZM3.18496 7.82975H16.8583V10.4755H3.18496V7.82975ZM4.42799 11.7536H16.8583C15.8079 12.4252 14.9162 13.329 14.248 14.3993H4.42799V11.7536ZM13.1292 22.2597H1.94192V19.614H12.9303C12.9931 20.5239 13.1988 21.4174 13.5394 22.2597H13.1292ZM1.94192 15.6774H13.5892C13.2443 16.519 13.0344 17.4125 12.9676 18.3231H1.94192V15.6774ZM15.6153 26.1835H1.94192V23.5378H14.2355C14.6097 24.1427 15.0566 24.6967 15.5656 25.1866L15.6153 26.1835ZM21.2711 26.1835C20.0399 26.1848 18.83 25.8526 17.7633 25.2205C16.6966 24.5883 15.8106 23.6784 15.1944 22.5824C14.5783 21.4863 14.2537 20.2427 14.2534 18.9767C14.2531 17.7108 14.5771 16.467 15.1927 15.3707C15.2173 15.3347 15.2381 15.2961 15.2548 15.2556C15.8867 14.1769 16.7824 13.2873 17.8526 12.6752C18.9229 12.0631 20.1304 11.75 21.355 11.767C22.5796 11.784 23.7784 12.1306 24.8322 12.7722C25.886 13.4137 26.758 14.328 27.3613 15.4238C27.9646 16.5196 28.2782 17.7589 28.2709 19.0181C28.2636 20.2773 27.9356 21.5126 27.3195 22.6009C26.7035 23.6893 25.821 24.5927 24.7598 25.2213C23.6986 25.8498 22.4958 26.1816 21.2711 26.1835Z" fill="white"/>
</g>
<defs>
<clipPath id="clip0_94_149">
<rect width="29" height="25" fill="white" transform="translate(0.5 2.5)"/>
</clipPath>
</defs>
</svg>
