<svg width="30" height="30" viewBox="0 0 30 30" fill="none" xmlns="http://www.w3.org/2000/svg">
<path d="M27.2344 15.2578L14.0156 9.65621C13.0078 9.23433 11.8828 9.25777 10.9219 9.72652L4.40625 13.0078L3.5625 11.3437L10.1016 8.06246C10.875 7.68746 11.7187 7.49996 12.5625 7.49996C13.3125 7.49996 14.0625 7.64058 14.7422 7.94527L27.9609 13.5234C28.6641 13.8281 29.2031 14.3906 29.4844 15.0937C29.7656 15.8203 29.7422 16.5937 29.4141 17.2968C28.7812 18.6562 27.1172 19.289 25.6875 18.6796L24.8672 18.3281L20.8828 16.6406L21.6094 14.9062L25.5938 16.5937L26.4141 16.9453C26.9062 17.1562 27.4922 16.9687 27.7031 16.5C27.8203 16.2656 27.8203 16.0078 27.7266 15.7734C27.6328 15.539 27.4688 15.3515 27.2344 15.2578Z" fill="white"/>
<path d="M2.10938 16.664L4.3125 18.4921C5.57813 19.453 7.125 19.8749 8.69531 19.6874C9.32812 19.6171 9.91406 19.453 10.4766 19.1952L16.5469 16.4999C16.7109 16.4296 16.8516 16.3124 16.9453 16.1484C17.1094 15.8905 17.1328 15.5624 17.0156 15.2577C16.9688 15.164 16.9219 15.0937 16.875 15.0234C16.5938 14.7187 16.1719 14.6249 15.7969 14.789L11.1094 16.8749L10.3359 15.164L15.0234 13.078C15.3984 12.914 15.7969 12.8202 16.1719 12.8202C16.9688 12.8202 17.7188 13.1484 18.2813 13.7812C18.4688 13.9921 18.6328 14.2265 18.75 14.4843C19.125 15.3515 19.0547 16.3359 18.5625 17.1327C18.2578 17.6015 17.8359 17.9765 17.3438 18.1874L11.25 20.9062C10.5234 21.2343 9.72656 21.4452 8.92969 21.539C6.86719 21.7734 4.82813 21.2109 3.1875 19.9687L0.234375 17.5546V7.26555H2.10938V16.664Z" fill="white"/>
</svg>
