<svg width="25" height="26" viewBox="0 0 25 26" fill="none" xmlns="http://www.w3.org/2000/svg">
<path d="M10.9375 9.48438H9.375C8.94353 9.48438 8.59375 9.83415 8.59375 10.2656V11.8281C8.59375 12.2596 8.94353 12.6094 9.375 12.6094H10.9375C11.369 12.6094 11.7188 12.2596 11.7188 11.8281V10.2656C11.7188 9.83415 11.369 9.48438 10.9375 9.48438Z" fill="white"/>
<path d="M15.625 9.48438H14.0625C13.631 9.48438 13.2812 9.83415 13.2812 10.2656V11.8281C13.2812 12.2596 13.631 12.6094 14.0625 12.6094H15.625C16.0565 12.6094 16.4062 12.2596 16.4062 11.8281V10.2656C16.4062 9.83415 16.0565 9.48438 15.625 9.48438Z" fill="white"/>
<path d="M20.3125 9.48438H18.75C18.3185 9.48438 17.9688 9.83415 17.9688 10.2656V11.8281C17.9688 12.2596 18.3185 12.6094 18.75 12.6094H20.3125C20.744 12.6094 21.0938 12.2596 21.0938 11.8281V10.2656C21.0938 9.83415 20.744 9.48438 20.3125 9.48438Z" fill="white"/>
<path d="M10.9375 13.5859H9.375C8.94353 13.5859 8.59375 13.9357 8.59375 14.3672V15.9297C8.59375 16.3612 8.94353 16.7109 9.375 16.7109H10.9375C11.369 16.7109 11.7188 16.3612 11.7188 15.9297V14.3672C11.7188 13.9357 11.369 13.5859 10.9375 13.5859Z" fill="white"/>
<path d="M15.625 13.5859H14.0625C13.631 13.5859 13.2812 13.9357 13.2812 14.3672V15.9297C13.2812 16.3612 13.631 16.7109 14.0625 16.7109H15.625C16.0565 16.7109 16.4062 16.3612 16.4062 15.9297V14.3672C16.4062 13.9357 16.0565 13.5859 15.625 13.5859Z" fill="white"/>
<path d="M20.3125 13.5859H18.75C18.3185 13.5859 17.9688 13.9357 17.9688 14.3672V15.9297C17.9688 16.3612 18.3185 16.7109 18.75 16.7109H20.3125C20.744 16.7109 21.0938 16.3612 21.0938 15.9297V14.3672C21.0938 13.9357 20.744 13.5859 20.3125 13.5859Z" fill="white"/>
<path d="M6.25 17.6875H4.6875C4.25603 17.6875 3.90625 18.0373 3.90625 18.4688V20.0312C3.90625 20.4627 4.25603 20.8125 4.6875 20.8125H6.25C6.68147 20.8125 7.03125 20.4627 7.03125 20.0312V18.4688C7.03125 18.0373 6.68147 17.6875 6.25 17.6875Z" fill="white"/>
<path d="M10.9375 17.6875H9.375C8.94353 17.6875 8.59375 18.0373 8.59375 18.4688V20.0312C8.59375 20.4627 8.94353 20.8125 9.375 20.8125H10.9375C11.369 20.8125 11.7188 20.4627 11.7188 20.0312V18.4688C11.7188 18.0373 11.369 17.6875 10.9375 17.6875Z" fill="white"/>
<path d="M4.01953 15.6211L4.80078 16.4023C4.83957 16.4414 4.88617 16.4718 4.93753 16.4915C4.98889 16.5113 5.04384 16.52 5.09879 16.5171C5.15375 16.5141 5.20745 16.4996 5.2564 16.4744C5.30534 16.4493 5.34842 16.4141 5.38281 16.3711L6.94531 14.418C6.97929 14.3782 7.00493 14.332 7.0207 14.2821C7.03648 14.2322 7.04207 14.1796 7.03714 14.1275C7.03222 14.0755 7.01688 14.0249 6.99203 13.9788C6.96719 13.9328 6.93334 13.8922 6.89251 13.8595C6.85168 13.8268 6.80469 13.8026 6.75433 13.7884C6.70397 13.7742 6.65127 13.7702 6.59936 13.7768C6.54745 13.7833 6.49738 13.8002 6.45213 13.8265C6.40688 13.8528 6.36736 13.8879 6.33594 13.9297L5.04687 15.5391L4.57422 15.0664C4.50066 14.9929 4.4009 14.9515 4.29687 14.9515C4.19285 14.9515 4.09309 14.9929 4.01953 15.0664C3.94597 15.14 3.90465 15.2397 3.90465 15.3438C3.90465 15.4478 3.94597 15.5475 4.01953 15.6211Z" fill="white"/>
<path d="M13.3945 20.6992C13.4308 20.7358 13.474 20.7649 13.5216 20.7847C13.5693 20.8046 13.6203 20.8148 13.6719 20.8148C13.7234 20.8148 13.7745 20.8046 13.8221 20.7847C13.8697 20.7649 13.9129 20.7358 13.9492 20.6992L14.8437 19.8008L15.7383 20.6992C15.8118 20.7728 15.9116 20.8141 16.0156 20.8141C16.1196 20.8141 16.2194 20.7728 16.293 20.6992C16.3665 20.6257 16.4078 20.5259 16.4078 20.4219C16.4078 20.3179 16.3665 20.2181 16.293 20.1445L15.3945 19.25L16.293 18.3555C16.3665 18.2819 16.4078 18.1821 16.4078 18.0781C16.4078 17.9741 16.3665 17.8743 16.293 17.8008C16.2194 17.7272 16.1196 17.6859 16.0156 17.6859C15.9116 17.6859 15.8118 17.7272 15.7383 17.8008L14.8437 18.6992L13.9492 17.8008C13.8757 17.7272 13.7759 17.6859 13.6719 17.6859C13.5678 17.6859 13.4681 17.7272 13.3945 17.8008C13.321 17.8743 13.2797 17.9741 13.2797 18.0781C13.2797 18.1821 13.321 18.2819 13.3945 18.3555L14.293 19.25L13.3945 20.1445C13.3579 20.1808 13.3289 20.224 13.309 20.2717C13.2892 20.3193 13.279 20.3703 13.279 20.4219C13.279 20.4734 13.2892 20.5245 13.309 20.5721C13.3289 20.6197 13.3579 20.6629 13.3945 20.6992Z" fill="white"/>
<path d="M6.25 9.48438H4.6875C4.25603 9.48438 3.90625 9.83415 3.90625 10.2656V11.8281C3.90625 12.2596 4.25603 12.6094 4.6875 12.6094H6.25C6.68147 12.6094 7.03125 12.2596 7.03125 11.8281V10.2656C7.03125 9.83415 6.68147 9.48438 6.25 9.48438Z" fill="white"/>
<path d="M21.0938 2.84375H19.9219V2.64844C19.9219 2.28584 19.7778 1.93809 19.5214 1.68169C19.265 1.42529 18.9173 1.28125 18.5547 1.28125C18.1921 1.28125 17.8443 1.42529 17.5879 1.68169C17.3315 1.93809 17.1875 2.28584 17.1875 2.64844V2.84375H13.8672V2.64844C13.8672 2.28584 13.7231 1.93809 13.4667 1.68169C13.2104 1.42529 12.8626 1.28125 12.5 1.28125C12.1374 1.28125 11.7896 1.42529 11.5333 1.68169C11.2769 1.93809 11.1328 2.28584 11.1328 2.64844V2.84375H7.8125V2.64844C7.8125 2.28584 7.66846 1.93809 7.41206 1.68169C7.15566 1.42529 6.80791 1.28125 6.44531 1.28125C6.08271 1.28125 5.73496 1.42529 5.47856 1.68169C5.22217 1.93809 5.07812 2.28584 5.07812 2.64844V2.84375H3.90625C3.38825 2.84375 2.89146 3.04953 2.52518 3.41581C2.1589 3.78209 1.95313 4.27887 1.95312 4.79688V22.7656C1.95312 23.2836 2.1589 23.7804 2.52518 24.1467C2.89146 24.513 3.38825 24.7188 3.90625 24.7188H21.0938C21.6118 24.7188 22.1085 24.513 22.4748 24.1467C22.8411 23.7804 23.0469 23.2836 23.0469 22.7656V4.79688C23.0469 4.27887 22.8411 3.78209 22.4748 3.41581C22.1085 3.04953 21.6118 2.84375 21.0938 2.84375ZM17.9688 2.64844C17.9688 2.49304 18.0305 2.344 18.1404 2.23412C18.2503 2.12423 18.3993 2.0625 18.5547 2.0625C18.7101 2.0625 18.8591 2.12423 18.969 2.23412C19.0789 2.344 19.1406 2.49304 19.1406 2.64844V4.21094C19.1406 4.36634 19.0789 4.51537 18.969 4.62526C18.8591 4.73514 18.7101 4.79688 18.5547 4.79688C18.3993 4.79688 18.2503 4.73514 18.1404 4.62526C18.0305 4.51537 17.9688 4.36634 17.9688 4.21094V2.64844ZM11.9141 2.64844C11.9141 2.49304 11.9758 2.344 12.0857 2.23412C12.1956 2.12423 12.3446 2.0625 12.5 2.0625C12.6554 2.0625 12.8044 2.12423 12.9143 2.23412C13.0242 2.344 13.0859 2.49304 13.0859 2.64844V4.21094C13.0859 4.36634 13.0242 4.51537 12.9143 4.62526C12.8044 4.73514 12.6554 4.79688 12.5 4.79688C12.3446 4.79688 12.1956 4.73514 12.0857 4.62526C11.9758 4.51537 11.9141 4.36634 11.9141 4.21094V2.64844ZM5.85938 2.64844C5.85938 2.49304 5.92111 2.344 6.03099 2.23412C6.14088 2.12423 6.28991 2.0625 6.44531 2.0625C6.60071 2.0625 6.74975 2.12423 6.85963 2.23412C6.96952 2.344 7.03125 2.49304 7.03125 2.64844V4.21094C7.03125 4.36634 6.96952 4.51537 6.85963 4.62526C6.74975 4.73514 6.60071 4.79688 6.44531 4.79688C6.28991 4.79688 6.14088 4.73514 6.03099 4.62526C5.92111 4.51537 5.85938 4.36634 5.85938 4.21094V2.64844ZM18.75 21.8242V20.0312C18.75 19.7204 18.8735 19.4224 19.0932 19.2026C19.313 18.9828 19.6111 18.8594 19.9219 18.8594H21.7148L18.75 21.8242ZM22.2656 17.6875C22.2656 17.7911 22.2245 17.8905 22.1512 17.9637C22.078 18.037 21.9786 18.0781 21.875 18.0781H19.9219C19.4039 18.0781 18.9071 18.2839 18.5408 18.6502C18.1745 19.0165 17.9688 19.5132 17.9688 20.0312V21.9844C17.9688 22.088 17.9276 22.1873 17.8543 22.2606C17.7811 22.3338 17.6817 22.375 17.5781 22.375L3.90625 22.3516C3.59545 22.3516 3.29738 22.2281 3.07761 22.0083C2.85784 21.7886 2.73438 21.4905 2.73438 21.1797V8.3125H22.2656V17.6875Z" fill="white"/>
</svg>
