<svg width="62" height="57" viewBox="0 0 62 57" fill="none" xmlns="http://www.w3.org/2000/svg">
<g filter="url(#filter0_d_26_119)">
<path d="M6 12.5C6 6.97715 10.4772 2.5 16 2.5H44C50.6274 2.5 56 7.87258 56 14.5V35.5C56 42.1274 50.6274 47.5 44 47.5H18C11.3726 47.5 6 42.1274 6 35.5V12.5Z" fill="#214098"/>
<path d="M22.4242 30.625C21.8401 30.6967 21.2967 30.9615 20.8802 31.3773C19.8478 32.4133 19.75 36.25 19.75 36.25C19.75 36.25 23.589 36.1522 24.622 35.1186C25.0396 34.7028 25.3048 34.1585 25.375 33.5734M43.0592 13.1529C43.0492 13.1048 43.0257 13.0606 42.9914 13.0254C42.9572 12.9902 42.9136 12.9656 42.8658 12.9543C39.6795 12.175 32.3189 14.9518 28.3269 18.9408C27.6155 19.6464 26.9667 20.4126 26.3881 21.2307C25.1576 21.1193 23.9271 21.2131 22.8795 21.6701C19.9211 22.9709 19.0603 26.3682 18.8201 27.8266C18.8071 27.9065 18.8126 27.9883 18.8363 28.0657C18.86 28.1432 18.9013 28.2141 18.9568 28.273C19.0123 28.3319 19.0807 28.3773 19.1565 28.4055C19.2324 28.4338 19.3138 28.4442 19.3943 28.4359L24.1445 27.9145C24.1478 28.2727 24.1693 28.6306 24.209 28.9867C24.2337 29.2329 24.3436 29.4626 24.5195 29.6365L26.3588 31.4758C26.5328 31.6518 26.7628 31.7617 27.0092 31.7863C27.3631 31.8258 27.7188 31.8473 28.075 31.8508L27.5541 36.5969C27.5459 36.6773 27.5564 36.7586 27.5847 36.8343C27.613 36.91 27.6583 36.9783 27.7171 37.0337C27.7759 37.0892 27.8468 37.1303 27.924 37.1541C28.0013 37.1778 28.083 37.1834 28.1629 37.1705C29.6218 36.9361 33.0261 36.0754 34.3193 33.1176C34.7763 32.0688 34.8701 30.8447 34.7646 29.6201C35.5851 29.042 36.3534 28.3932 37.0609 27.6813C41.0676 23.6969 43.8267 16.4981 43.0592 13.1529ZM33.4996 22.5197C33.1496 22.1698 32.9113 21.724 32.8147 21.2387C32.7181 20.7534 32.7676 20.2503 32.957 19.7931C33.1463 19.3359 33.467 18.9451 33.8785 18.6701C34.2899 18.3952 34.7737 18.2484 35.2685 18.2484C35.7634 18.2484 36.2471 18.3952 36.6586 18.6701C37.0701 18.9451 37.3907 19.3359 37.5801 19.7931C37.7694 20.2503 37.819 20.7534 37.7224 21.2387C37.6258 21.724 37.3874 22.1698 37.0375 22.5197C36.8054 22.7523 36.5296 22.9369 36.2261 23.0628C35.9225 23.1887 35.5972 23.2535 35.2685 23.2535C34.9399 23.2535 34.6145 23.1887 34.311 23.0628C34.0074 22.9369 33.7317 22.7523 33.4996 22.5197Z" stroke="white" stroke-width="1.8" stroke-linecap="round" stroke-linejoin="round"/>
</g>
<defs>
<filter id="filter0_d_26_119" x="0.5" y="0.5" width="61" height="56" filterUnits="userSpaceOnUse" color-interpolation-filters="sRGB">
<feFlood flood-opacity="0" result="BackgroundImageFix"/>
<feColorMatrix in="SourceAlpha" type="matrix" values="0 0 0 0 0 0 0 0 0 0 0 0 0 0 0 0 0 0 127 0" result="hardAlpha"/>
<feOffset dy="3.5"/>
<feGaussianBlur stdDeviation="2.75"/>
<feColorMatrix type="matrix" values="0 0 0 0 0 0 0 0 0 0 0 0 0 0 0 0 0 0 0.02 0"/>
<feBlend mode="normal" in2="BackgroundImageFix" result="effect1_dropShadow_26_119"/>
<feBlend mode="normal" in="SourceGraphic" in2="effect1_dropShadow_26_119" result="shape"/>
</filter>
</defs>
</svg>
