<svg width="23" height="24" viewBox="0 0 23 24" fill="none" xmlns="http://www.w3.org/2000/svg">
<path d="M11.5 4.55C9.1375 4.55 7.3375 6.35 7.3375 8.6C7.3375 10.85 9.25 12.65 11.5 12.65C13.75 12.65 15.6625 10.85 15.6625 8.6C15.6625 6.35 13.8625 4.55 11.5 4.55ZM11.5 10.5125C10.375 10.5125 9.5875 9.725 9.5875 8.7125C9.5875 7.7 10.375 6.8 11.5 6.8C12.625 6.8 13.4125 7.5875 13.4125 8.6C13.4125 9.6125 12.625 10.5125 11.5 10.5125Z" fill="white"/>
<path d="M11.5 0.75C5.3125 0.75 0.25 5.8125 0.25 12C0.25 14.8125 1.375 17.625 3.2875 19.65C5.425 21.9 8.35 23.25 11.5 23.25C14.65 23.25 17.575 22.0125 19.7125 19.65C21.625 17.625 22.75 14.8125 22.75 12C22.75 5.8125 17.6875 0.75 11.5 0.75ZM10.6 21C10.4875 21 10.375 21 10.2625 21C10.0375 21 9.925 21 9.7 20.8875C9.5875 20.8875 9.475 20.8875 9.3625 20.775C9.1375 20.775 9.025 20.6625 8.8 20.6625C8.6875 20.6625 8.575 20.55 8.4625 20.55C8.35 20.55 8.125 20.4375 8.0125 20.325C7.9 20.325 7.7875 20.2125 7.675 20.2125C7.5625 20.1 7.3375 20.1 7.225 19.9875C7.1125 19.875 7 19.7625 6.8875 19.7625C6.775 19.65 6.6625 19.5375 6.4375 19.5375C6.325 19.425 6.2125 19.425 6.1 19.3125C5.9875 19.2 5.875 19.0875 5.7625 18.975C5.65 18.8625 5.5375 18.8625 5.425 18.75L5.3125 18.6375V18.525C5.875 16.6125 7.45 15.375 9.25 15.375H13.75C15.55 15.375 17.125 16.6125 17.6875 18.525L17.575 18.6375C17.4625 18.75 17.35 18.8625 17.2375 18.8625C17.125 18.975 17.0125 19.0875 16.9 19.2C16.7875 19.3125 16.675 19.3125 16.5625 19.425C16.45 19.5375 16.3375 19.65 16.1125 19.65C16 19.7625 15.8875 19.7625 15.775 19.875C15.6625 19.9875 15.4375 19.9875 15.325 20.1C15.2125 20.1 15.1 20.2125 14.9875 20.2125C14.875 20.325 14.65 20.325 14.5375 20.4375C14.425 20.4375 14.3125 20.55 14.2 20.55C13.975 20.55 13.8625 20.6625 13.6375 20.6625C13.525 20.6625 13.4125 20.775 13.3 20.775C13.075 20.775 12.9625 20.8875 12.7375 20.8875C12.625 20.8875 12.5125 20.8875 12.4 20.8875C12.0625 20.8875 11.8375 20.8875 11.5 20.8875C11.1625 20.8875 10.9375 21 10.6 21ZM19.2625 16.6125C18.1375 14.475 16 13.125 13.75 13.125H9.25C6.8875 13.125 4.75 14.475 3.7375 16.6125C2.95 15.15 2.5 13.6875 2.5 12C2.5 7.05 6.55 3 11.5 3C16.45 3 20.5 7.05 20.5 12C20.5 13.6875 20.05 15.15 19.2625 16.6125Z" fill="white"/>
</svg>
