<svg width="62" height="57" viewBox="0 0 62 57" fill="none" xmlns="http://www.w3.org/2000/svg">
<g filter="url(#filter0_d_22_36)">
<path d="M6 12.5C6 6.97715 10.4772 2.5 16 2.5H44C50.6274 2.5 56 7.87258 56 14.5V35.5C56 42.1274 50.6274 47.5 44 47.5H18C11.3726 47.5 6 42.1274 6 35.5V12.5Z" fill="#214098"/>
<path d="M40.25 37.0833C40.9403 37.0833 41.5 36.5237 41.5 35.8333C41.5 35.143 40.9403 34.5833 40.25 34.5833V37.0833ZM20.75 34.5833C20.0596 34.5833 19.5 35.143 19.5 35.8333C19.5 36.5237 20.0596 37.0833 20.75 37.0833V34.5833ZM22.2852 35.8333C22.2852 36.5237 22.8449 37.0833 23.5352 37.0833C24.2256 37.0833 24.7852 36.5237 24.7852 35.8333H22.2852ZM23.5352 30.73H24.7852C24.7852 30.7133 24.7849 30.6965 24.7842 30.6798L23.5352 30.73ZM25.1602 27.6717L24.5837 26.5625C24.5602 26.5748 24.5371 26.5877 24.5145 26.6013L25.1602 27.6717ZM28.7255 25.8183L29.302 26.9275L29.3115 26.9225L28.7255 25.8183ZM32.276 25.8183L31.69 26.9225L31.7002 26.9277L32.276 25.8183ZM35.8365 27.6667L36.4822 26.5963C36.4593 26.5827 36.436 26.5695 36.4123 26.5573L35.8365 27.6667ZM37.4615 30.725L36.2125 30.6748C36.2118 30.6915 36.2115 30.7083 36.2115 30.725H37.4615ZM36.2115 35.8333C36.2115 36.5237 36.7712 37.0833 37.4615 37.0833C38.1518 37.0833 38.7115 36.5237 38.7115 35.8333H36.2115ZM38.7115 12.5C38.7115 11.8096 38.1518 11.25 37.4615 11.25C36.7712 11.25 36.2115 11.8096 36.2115 12.5H38.7115ZM37.4615 18.3333H36.2115C36.2115 18.35 36.2118 18.3667 36.2125 18.3835L37.4615 18.3333ZM35.8365 21.3917L36.413 22.5008C36.4365 22.4885 36.4595 22.4757 36.4822 22.462L35.8365 21.3917ZM32.2745 23.2433L31.6978 22.1342L31.6885 22.1392L32.2745 23.2433ZM28.7238 23.2433L29.3098 22.1392L29.3007 22.1343L28.7238 23.2433ZM25.1635 21.3917L24.5177 22.462C24.5403 22.4755 24.5633 22.4885 24.5867 22.5007L25.1635 21.3917ZM23.5385 18.3333L24.7875 18.3835C24.7881 18.3667 24.7885 18.35 24.7885 18.3333H23.5385ZM24.7885 12.5C24.7885 11.8096 24.2288 11.25 23.5385 11.25C22.8481 11.25 22.2885 11.8096 22.2885 12.5H24.7885ZM37.4663 11.25C36.776 11.25 36.2163 11.8096 36.2163 12.5C36.2163 13.1903 36.776 13.75 37.4663 13.75V11.25ZM40.25 13.75C40.9403 13.75 41.5 13.1903 41.5 12.5C41.5 11.8096 40.9403 11.25 40.25 11.25V13.75ZM37.4663 13.75C38.1567 13.75 38.7147 13.1903 38.7147 12.5C38.7147 11.8096 38.1567 11.25 37.4663 11.25V13.75ZM23.5352 11.25C22.8449 11.25 22.2852 11.8096 22.2852 12.5C22.2852 13.1903 22.8449 13.75 23.5352 13.75V11.25ZM23.5352 13.75C24.2256 13.75 24.7852 13.1903 24.7852 12.5C24.7852 11.8096 24.2256 11.25 23.5352 11.25V13.75ZM20.75 11.25C20.0596 11.25 19.5 11.8096 19.5 12.5C19.5 13.1903 20.0596 13.75 20.75 13.75V11.25ZM28.3565 18.094C27.7642 17.7395 26.9966 17.9324 26.6421 18.5248C26.2876 19.1172 26.4805 19.8848 27.0729 20.2393L28.3565 18.094ZM30.5 20.8333L29.8582 21.906C30.2533 22.1425 30.7467 22.1425 31.1418 21.906L30.5 20.8333ZM33.927 20.2393C34.5195 19.8848 34.7123 19.1172 34.3578 18.5248C34.0033 17.9324 33.2358 17.7395 32.6433 18.094L33.927 20.2393ZM40.25 34.5833H20.75V37.0833H40.25V34.5833ZM24.7852 35.8333V30.73H22.2852V35.8333H24.7852ZM24.7842 30.6798C24.7519 29.8758 25.155 29.1347 25.806 28.742L24.5145 26.6013C23.0646 27.4762 22.2183 29.0863 22.2862 30.7802L24.7842 30.6798ZM25.7368 28.7808L29.302 26.9275L28.1488 24.7092L24.5837 26.5625L25.7368 28.7808ZM29.3115 26.9225C30.0585 26.526 30.9432 26.526 31.69 26.9225L32.8622 24.7142C31.3822 23.9287 29.6193 23.9287 28.1395 24.7142L29.3115 26.9225ZM31.7002 26.9277L35.2605 28.776L36.4123 26.5573L32.852 24.709L31.7002 26.9277ZM35.1907 28.737C35.8417 29.1297 36.2447 29.8708 36.2125 30.6748L38.7105 30.7752C38.7785 29.0813 37.9322 27.4712 36.4822 26.5963L35.1907 28.737ZM36.2115 30.725V35.8333H38.7115V30.725H36.2115ZM36.2115 12.5V18.3333H38.7115V12.5H36.2115ZM36.2125 18.3835C36.2447 19.1875 35.8417 19.9286 35.1907 20.3214L36.4822 22.462C37.9322 21.5872 38.7783 19.9769 38.7105 18.2832L36.2125 18.3835ZM35.2598 20.2826L31.6978 22.1342L32.851 24.3525L36.413 22.5008L35.2598 20.2826ZM31.6885 22.1392C30.9415 22.5357 30.0568 22.5357 29.3098 22.1392L28.1378 24.3475C29.6177 25.133 31.3807 25.133 32.8605 24.3475L31.6885 22.1392ZM29.3007 22.1343L25.7402 20.2827L24.5867 22.5007L28.147 24.3523L29.3007 22.1343ZM25.8092 20.3214C25.1582 19.9286 24.7552 19.1875 24.7875 18.3835L22.2895 18.2832C22.2215 19.9769 23.0678 21.5872 24.5177 22.462L25.8092 20.3214ZM24.7885 18.3333V12.5H22.2885V18.3333H24.7885ZM37.4663 13.75H40.25V11.25H37.4663V13.75ZM37.4663 11.25H23.5352V13.75H37.4663V11.25ZM23.5352 11.25H20.75V13.75H23.5352V11.25ZM27.0729 20.2393L29.8582 21.906L31.1418 19.7607L28.3565 18.094L27.0729 20.2393ZM31.1418 21.906L33.927 20.2393L32.6433 18.094L29.8582 19.7607L31.1418 21.906Z" fill="white"/>
</g>
<defs>
<filter id="filter0_d_22_36" x="0.5" y="0.5" width="61" height="56" filterUnits="userSpaceOnUse" color-interpolation-filters="sRGB">
<feFlood flood-opacity="0" result="BackgroundImageFix"/>
<feColorMatrix in="SourceAlpha" type="matrix" values="0 0 0 0 0 0 0 0 0 0 0 0 0 0 0 0 0 0 127 0" result="hardAlpha"/>
<feOffset dy="3.5"/>
<feGaussianBlur stdDeviation="2.75"/>
<feColorMatrix type="matrix" values="0 0 0 0 0 0 0 0 0 0 0 0 0 0 0 0 0 0 0.02 0"/>
<feBlend mode="normal" in2="BackgroundImageFix" result="effect1_dropShadow_22_36"/>
<feBlend mode="normal" in="SourceGraphic" in2="effect1_dropShadow_22_36" result="shape"/>
</filter>
</defs>
</svg>
