<svg width="62" height="57" viewBox="0 0 62 57" fill="none" xmlns="http://www.w3.org/2000/svg">
<g filter="url(#filter0_d_26_91)">
<path d="M6 12.5C6 6.97715 10.4772 2.5 16 2.5H44C50.6274 2.5 56 7.87258 56 14.5V35.5C56 42.1274 50.6274 47.5 44 47.5H18C11.3726 47.5 6 42.1274 6 35.5V12.5Z" fill="#214098"/>
<g clip-path="url(#clip0_26_91)">
<path d="M39.7375 18.775C39.8055 18.9512 39.9251 19.1027 40.0807 19.2098C40.2362 19.3169 40.4205 19.3744 40.6094 19.375C40.725 19.3741 40.8394 19.3519 40.9469 19.3094C41.1777 19.2193 41.3634 19.0415 41.4636 18.8149C41.5637 18.5883 41.5701 18.3313 41.4813 18.1C41.0475 16.9892 40.4399 15.9544 39.6813 15.0344C39.5183 14.8602 39.2951 14.7546 39.0571 14.7392C38.819 14.7238 38.5841 14.7997 38.4 14.9514C38.216 15.1032 38.0967 15.3194 38.0665 15.556C38.0364 15.7927 38.0975 16.0319 38.2375 16.225C38.8693 16.9903 39.3756 17.851 39.7375 18.775ZM36.625 14.6875C36.8736 14.6875 37.1121 14.5887 37.2879 14.4129C37.4637 14.2371 37.5625 13.9986 37.5625 13.75C37.5584 13.624 37.5288 13.5 37.4757 13.3857C37.4225 13.2713 37.3468 13.1688 37.2531 13.0844C37.1732 12.9977 37.0761 12.9287 36.9679 12.8819C36.8597 12.8351 36.7429 12.8114 36.625 12.8125C36.3764 12.8125 36.1379 12.9113 35.9621 13.0871C35.7863 13.2629 35.6875 13.5014 35.6875 13.75C35.6911 13.8853 35.724 14.0182 35.7839 14.1396C35.8438 14.2609 35.9292 14.3679 36.0344 14.4531C36.198 14.5976 36.4068 14.6805 36.625 14.6875ZM24.4375 22.1875C24.4375 23.4854 24.8224 24.7542 25.5435 25.8334C26.2646 26.9126 27.2895 27.7538 28.4886 28.2505C29.6878 28.7472 31.0073 28.8771 32.2803 28.6239C33.5533 28.3707 34.7226 27.7457 35.6404 26.8279C36.5582 25.9101 37.1832 24.7408 37.4364 23.4678C37.6896 22.1948 37.5597 20.8753 37.063 19.6761C36.5663 18.477 35.7251 17.4521 34.6459 16.731C33.5667 16.0099 32.2979 15.625 31 15.625C29.2595 15.625 27.5903 16.3164 26.3596 17.5471C25.1289 18.7778 24.4375 20.447 24.4375 22.1875ZM35.6875 22.1875C35.6875 23.1146 35.4126 24.0209 34.8975 24.7917C34.3824 25.5626 33.6504 26.1634 32.7938 26.5182C31.9373 26.873 30.9948 26.9658 30.0855 26.7849C29.1762 26.6041 28.341 26.1576 27.6854 25.5021C27.0299 24.8465 26.5834 24.0113 26.4026 23.102C26.2217 22.1927 26.3145 21.2502 26.6693 20.3937C27.0241 19.5371 27.6249 18.8051 28.3958 18.29C29.1666 17.7749 30.0729 17.5 31 17.5C32.2432 17.5 33.4355 17.9939 34.3146 18.8729C35.1936 19.752 35.6875 20.9443 35.6875 22.1875Z" fill="white"/>
<path d="M44.7906 34.6469L39.5875 29.4437C41.3084 27.4178 42.2522 24.8457 42.25 22.1875C42.25 21.9389 42.1512 21.7004 41.9754 21.5246C41.7996 21.3488 41.5612 21.25 41.3125 21.25C41.0639 21.25 40.8254 21.3488 40.6496 21.5246C40.4738 21.7004 40.375 21.9389 40.375 22.1875C40.3738 23.7119 40.001 25.2129 39.2887 26.5607C38.5765 27.9084 37.5463 29.0621 36.2875 29.9219L35.35 30.4844C34.0104 31.1905 32.519 31.5595 31.0047 31.5595C29.4904 31.5595 27.999 31.1905 26.6594 30.4844L25.7219 29.9219C23.8957 28.6637 22.5747 26.799 21.9934 24.6589C21.4122 22.5189 21.6083 20.242 22.5471 18.2329C23.4859 16.2239 25.1065 14.6126 27.1209 13.6854C29.1354 12.7582 31.4133 12.5752 33.55 13.1687C33.6712 13.2128 33.8002 13.2313 33.929 13.2232C34.0577 13.2151 34.1833 13.1805 34.2981 13.1217C34.4128 13.0628 34.5142 12.9809 34.5958 12.881C34.6775 12.7812 34.7376 12.6655 34.7726 12.5414C34.8075 12.4172 34.8164 12.2872 34.7988 12.1594C34.7812 12.0317 34.7374 11.9089 34.6701 11.7989C34.6029 11.6888 34.5137 11.5938 34.4081 11.5198C34.3024 11.4458 34.1827 11.3944 34.0563 11.3687C31.7415 10.7231 29.2807 10.8357 27.0345 11.69C24.7883 12.5443 22.8747 14.0954 21.5741 16.1161C20.2734 18.1369 19.6539 20.521 19.8065 22.9194C19.9591 25.3177 20.8756 27.6041 22.4219 29.4437L17.2094 34.6469C17.0772 34.778 16.987 34.9455 16.9504 35.1281C16.9138 35.3107 16.9323 35.5 17.0037 35.672C17.0751 35.844 17.1961 35.9908 17.3513 36.0937C17.5065 36.1967 17.6888 36.2511 17.875 36.25H20.95L21.6719 38.425C21.7221 38.5772 21.8105 38.7141 21.9287 38.8224C22.0469 38.9307 22.1909 39.0069 22.3469 39.0437L22.5625 39.0625C22.6859 39.0632 22.8082 39.0396 22.9224 38.9929C23.0367 38.9462 23.1405 38.8775 23.2281 38.7906L28.7969 33.2219C30.2511 33.5145 31.749 33.5145 33.2031 33.2219L38.7719 38.7906C38.8595 38.8775 38.9634 38.9462 39.0776 38.9929C39.1918 39.0396 39.3141 39.0632 39.4375 39.0625H39.6531C39.8092 39.0257 39.9532 38.9495 40.0713 38.8411C40.1895 38.7328 40.2779 38.596 40.3281 38.4437L41.05 36.25H44.125C44.3112 36.2511 44.4935 36.1967 44.6487 36.0937C44.8039 35.9908 44.9249 35.844 44.9963 35.672C45.0677 35.5 45.0863 35.3107 45.0497 35.1281C45.013 34.9455 44.9229 34.778 44.7906 34.6469ZM26.6781 32.6875L22.9281 36.4375L22.4688 35.0687C22.4183 34.8794 22.3097 34.7107 22.1584 34.5863C22.007 34.4619 21.8205 34.388 21.625 34.375H20.1344L23.6406 30.8687L24.6813 31.4875C25.0255 31.7195 25.3823 31.9324 25.75 32.125L26.6781 32.6875ZM40.375 34.375C40.1785 34.3745 39.9867 34.4358 39.8269 34.5502C39.6671 34.6646 39.5473 34.8263 39.4844 35.0125L39.025 36.3812L35.275 32.6312L36.2125 32.0781C36.5803 31.8855 36.9371 31.6727 37.2813 31.4406L38.3219 30.8219L41.8656 34.375H40.375Z" fill="white"/>
</g>
</g>
<defs>
<filter id="filter0_d_26_91" x="0.5" y="0.5" width="61" height="56" filterUnits="userSpaceOnUse" color-interpolation-filters="sRGB">
<feFlood flood-opacity="0" result="BackgroundImageFix"/>
<feColorMatrix in="SourceAlpha" type="matrix" values="0 0 0 0 0 0 0 0 0 0 0 0 0 0 0 0 0 0 127 0" result="hardAlpha"/>
<feOffset dy="3.5"/>
<feGaussianBlur stdDeviation="2.75"/>
<feColorMatrix type="matrix" values="0 0 0 0 0 0 0 0 0 0 0 0 0 0 0 0 0 0 0.02 0"/>
<feBlend mode="normal" in2="BackgroundImageFix" result="effect1_dropShadow_26_91"/>
<feBlend mode="normal" in="SourceGraphic" in2="effect1_dropShadow_26_91" result="shape"/>
</filter>
<clipPath id="clip0_26_91">
<rect width="30" height="30" fill="white" transform="translate(16 10)"/>
</clipPath>
</defs>
</svg>
