<svg width="61" height="57" viewBox="0 0 61 57" fill="none" xmlns="http://www.w3.org/2000/svg">
<g filter="url(#filter0_d_26_77)">
<path d="M5.5 12.5C5.5 6.97715 9.97715 2.5 15.5 2.5H43.5C50.1274 2.5 55.5 7.87258 55.5 14.5V35.5C55.5 42.1274 50.1274 47.5 43.5 47.5H17.5C10.8726 47.5 5.5 42.1274 5.5 35.5V12.5Z" fill="#214098"/>
<path d="M28.6481 20.8333H26.7963C26.2849 20.8333 25.8704 21.2479 25.8704 21.7593V23.6111C25.8704 24.1225 26.2849 24.537 26.7963 24.537H28.6481C29.1595 24.537 29.5741 24.1225 29.5741 23.6111V21.7593C29.5741 21.2479 29.1595 20.8333 28.6481 20.8333Z" fill="white"/>
<path d="M34.2037 20.8333H32.3518C31.8405 20.8333 31.4259 21.2479 31.4259 21.7593V23.6111C31.4259 24.1225 31.8405 24.537 32.3518 24.537H34.2037C34.7151 24.537 35.1296 24.1225 35.1296 23.6111V21.7593C35.1296 21.2479 34.7151 20.8333 34.2037 20.8333Z" fill="white"/>
<path d="M39.7592 20.8333H37.9074C37.396 20.8333 36.9814 21.2479 36.9814 21.7593V23.6111C36.9814 24.1225 37.396 24.537 37.9074 24.537H39.7592C40.2706 24.537 40.6851 24.1225 40.6851 23.6111V21.7593C40.6851 21.2479 40.2706 20.8333 39.7592 20.8333Z" fill="white"/>
<path d="M28.6481 25.6944H26.7963C26.2849 25.6944 25.8704 26.109 25.8704 26.6204V28.4722C25.8704 28.9836 26.2849 29.3981 26.7963 29.3981H28.6481C29.1595 29.3981 29.5741 28.9836 29.5741 28.4722V26.6204C29.5741 26.109 29.1595 25.6944 28.6481 25.6944Z" fill="white"/>
<path d="M34.2037 25.6944H32.3518C31.8405 25.6944 31.4259 26.109 31.4259 26.6204V28.4722C31.4259 28.9836 31.8405 29.3981 32.3518 29.3981H34.2037C34.7151 29.3981 35.1296 28.9836 35.1296 28.4722V26.6204C35.1296 26.109 34.7151 25.6944 34.2037 25.6944Z" fill="white"/>
<path d="M39.7592 25.6944H37.9074C37.396 25.6944 36.9814 26.109 36.9814 26.6204V28.4722C36.9814 28.9836 37.396 29.3981 37.9074 29.3981H39.7592C40.2706 29.3981 40.6851 28.9836 40.6851 28.4722V26.6204C40.6851 26.109 40.2706 25.6944 39.7592 25.6944Z" fill="white"/>
<path d="M23.0926 30.5556H21.2407C20.7294 30.5556 20.3148 30.9701 20.3148 31.4815V33.3333C20.3148 33.8447 20.7294 34.2593 21.2407 34.2593H23.0926C23.604 34.2593 24.0185 33.8447 24.0185 33.3333V31.4815C24.0185 30.9701 23.604 30.5556 23.0926 30.5556Z" fill="white"/>
<path d="M28.6481 30.5556H26.7963C26.2849 30.5556 25.8704 30.9701 25.8704 31.4815V33.3333C25.8704 33.8447 26.2849 34.2593 26.7963 34.2593H28.6481C29.1595 34.2593 29.5741 33.8447 29.5741 33.3333V31.4815C29.5741 30.9701 29.1595 30.5556 28.6481 30.5556Z" fill="white"/>
<path d="M20.4491 28.1065L21.375 29.0324C21.421 29.0787 21.4762 29.1147 21.5371 29.1381C21.5979 29.1616 21.6631 29.1719 21.7282 29.1684C21.7933 29.1649 21.857 29.1476 21.915 29.1178C21.973 29.088 22.0241 29.0463 22.0648 28.9954L23.9167 26.6806C23.9569 26.6334 23.9873 26.5786 24.006 26.5195C24.0247 26.4604 24.0313 26.3981 24.0255 26.3364C24.0197 26.2746 24.0015 26.2147 23.972 26.1601C23.9426 26.1055 23.9025 26.0574 23.8541 26.0186C23.8057 25.9799 23.75 25.9512 23.6903 25.9344C23.6306 25.9175 23.5682 25.9128 23.5067 25.9206C23.4451 25.9284 23.3858 25.9484 23.3322 25.9795C23.2785 26.0107 23.2317 26.0523 23.1945 26.1019L21.6667 28.0093L21.1065 27.4491C21.0193 27.3619 20.9011 27.3129 20.7778 27.3129C20.6545 27.3129 20.5363 27.3619 20.4491 27.4491C20.3619 27.5363 20.3129 27.6545 20.3129 27.7778C20.3129 27.9011 20.3619 28.0193 20.4491 28.1065Z" fill="white"/>
<path d="M31.5602 34.125C31.6033 34.1684 31.6545 34.2028 31.7109 34.2263C31.7673 34.2498 31.8278 34.2619 31.8889 34.2619C31.95 34.2619 32.0106 34.2498 32.067 34.2263C32.1234 34.2028 32.1746 34.1684 32.2176 34.125L33.2778 33.0602L34.338 34.125C34.4252 34.2122 34.5434 34.2612 34.6667 34.2612C34.79 34.2612 34.9082 34.2122 34.9954 34.125C35.0826 34.0378 35.1316 33.9196 35.1316 33.7963C35.1316 33.673 35.0826 33.5548 34.9954 33.4676L33.9306 32.4074L34.9954 31.3472C35.0826 31.26 35.1316 31.1418 35.1316 31.0185C35.1316 30.8952 35.0826 30.777 34.9954 30.6898C34.9082 30.6026 34.79 30.5537 34.6667 30.5537C34.5434 30.5537 34.4252 30.6026 34.338 30.6898L33.2778 31.7546L32.2176 30.6898C32.1305 30.6026 32.0122 30.5537 31.8889 30.5537C31.7656 30.5537 31.6474 30.6026 31.5602 30.6898C31.473 30.777 31.4241 30.8952 31.4241 31.0185C31.4241 31.1418 31.473 31.26 31.5602 31.3472L32.625 32.4074L31.5602 33.4676C31.5168 33.5106 31.4824 33.5618 31.4589 33.6183C31.4354 33.6747 31.4233 33.7352 31.4233 33.7963C31.4233 33.8574 31.4354 33.9179 31.4589 33.9743C31.4824 34.0308 31.5168 34.082 31.5602 34.125Z" fill="white"/>
<path d="M23.0926 20.8333H21.2407C20.7294 20.8333 20.3148 21.2479 20.3148 21.7593V23.6111C20.3148 24.1225 20.7294 24.537 21.2407 24.537H23.0926C23.604 24.537 24.0185 24.1225 24.0185 23.6111V21.7593C24.0185 21.2479 23.604 20.8333 23.0926 20.8333Z" fill="white"/>
<path d="M40.6852 12.963H39.2963V12.7315C39.2963 12.3017 39.1256 11.8896 38.8217 11.5857C38.5178 11.2818 38.1057 11.1111 37.6759 11.1111C37.2462 11.1111 36.834 11.2818 36.5302 11.5857C36.2263 11.8896 36.0556 12.3017 36.0556 12.7315V12.963H32.1204V12.7315C32.1204 12.3017 31.9497 11.8896 31.6458 11.5857C31.3419 11.2818 30.9297 11.1111 30.5 11.1111C30.0703 11.1111 29.6581 11.2818 29.3542 11.5857C29.0503 11.8896 28.8796 12.3017 28.8796 12.7315V12.963H24.9444V12.7315C24.9444 12.3017 24.7737 11.8896 24.4698 11.5857C24.166 11.2818 23.7538 11.1111 23.3241 11.1111C22.8943 11.1111 22.4822 11.2818 22.1783 11.5857C21.8744 11.8896 21.7037 12.3017 21.7037 12.7315V12.963H20.3148C19.7009 12.963 19.1121 13.2068 18.678 13.641C18.2439 14.0751 18 14.6639 18 15.2778V36.5741C18 37.188 18.2439 37.7768 18.678 38.2109C19.1121 38.645 19.7009 38.8889 20.3148 38.8889H40.6852C41.2991 38.8889 41.8879 38.645 42.322 38.2109C42.7561 37.7768 43 37.188 43 36.5741V15.2778C43 14.6639 42.7561 14.0751 42.322 13.641C41.8879 13.2068 41.2991 12.963 40.6852 12.963ZM36.9815 12.7315C36.9815 12.5473 37.0546 12.3707 37.1849 12.2404C37.3151 12.1102 37.4917 12.037 37.6759 12.037C37.8601 12.037 38.0367 12.1102 38.167 12.2404C38.2972 12.3707 38.3704 12.5473 38.3704 12.7315V14.5833C38.3704 14.7675 38.2972 14.9441 38.167 15.0744C38.0367 15.2046 37.8601 15.2778 37.6759 15.2778C37.4917 15.2778 37.3151 15.2046 37.1849 15.0744C37.0546 14.9441 36.9815 14.7675 36.9815 14.5833V12.7315ZM29.8056 12.7315C29.8056 12.5473 29.8787 12.3707 30.009 12.2404C30.1392 12.1102 30.3158 12.037 30.5 12.037C30.6842 12.037 30.8608 12.1102 30.991 12.2404C31.1213 12.3707 31.1944 12.5473 31.1944 12.7315V14.5833C31.1944 14.7675 31.1213 14.9441 30.991 15.0744C30.8608 15.2046 30.6842 15.2778 30.5 15.2778C30.3158 15.2778 30.1392 15.2046 30.009 15.0744C29.8787 14.9441 29.8056 14.7675 29.8056 14.5833V12.7315ZM22.6296 12.7315C22.6296 12.5473 22.7028 12.3707 22.833 12.2404C22.9633 12.1102 23.1399 12.037 23.3241 12.037C23.5083 12.037 23.6849 12.1102 23.8151 12.2404C23.9454 12.3707 24.0185 12.5473 24.0185 12.7315V14.5833C24.0185 14.7675 23.9454 14.9441 23.8151 15.0744C23.6849 15.2046 23.5083 15.2778 23.3241 15.2778C23.1399 15.2778 22.9633 15.2046 22.833 15.0744C22.7028 14.9441 22.6296 14.7675 22.6296 14.5833V12.7315ZM37.9074 35.4583V33.3333C37.9074 32.965 38.0537 32.6117 38.3142 32.3512C38.5747 32.0908 38.9279 31.9445 39.2963 31.9445H41.4213L37.9074 35.4583ZM42.0741 30.5556C42.0741 30.6783 42.0253 30.7961 41.9385 30.8829C41.8517 30.9697 41.7339 31.0185 41.6111 31.0185H39.2963C38.6824 31.0185 38.0936 31.2624 37.6595 31.6965C37.2254 32.1306 36.9815 32.7194 36.9815 33.3333V35.6482C36.9815 35.7709 36.9327 35.8887 36.8459 35.9755C36.7591 36.0623 36.6413 36.1111 36.5185 36.1111L20.3148 36.0833C19.9465 36.0833 19.5932 35.937 19.3327 35.6765C19.0723 35.4161 18.9259 35.0628 18.9259 34.6945V19.4444H42.0741V30.5556Z" fill="white"/>
</g>
<defs>
<filter id="filter0_d_26_77" x="0" y="0.5" width="61" height="56" filterUnits="userSpaceOnUse" color-interpolation-filters="sRGB">
<feFlood flood-opacity="0" result="BackgroundImageFix"/>
<feColorMatrix in="SourceAlpha" type="matrix" values="0 0 0 0 0 0 0 0 0 0 0 0 0 0 0 0 0 0 127 0" result="hardAlpha"/>
<feOffset dy="3.5"/>
<feGaussianBlur stdDeviation="2.75"/>
<feColorMatrix type="matrix" values="0 0 0 0 0 0 0 0 0 0 0 0 0 0 0 0 0 0 0.02 0"/>
<feBlend mode="normal" in2="BackgroundImageFix" result="effect1_dropShadow_26_77"/>
<feBlend mode="normal" in="SourceGraphic" in2="effect1_dropShadow_26_77" result="shape"/>
</filter>
</defs>
</svg>
