<svg width="61" height="57" viewBox="0 0 61 57" fill="none" xmlns="http://www.w3.org/2000/svg">
<g filter="url(#filter0_d_26_105)">
<path d="M5.5 12.5C5.5 6.97715 9.97715 2.5 15.5 2.5H43.5C50.1274 2.5 55.5 7.87258 55.5 14.5V35.5C55.5 42.1274 50.1274 47.5 43.5 47.5H17.5C10.8726 47.5 5.5 42.1274 5.5 35.5V12.5Z" fill="#214098"/>
<g clip-path="url(#clip0_26_105)">
<path d="M42.2188 11.875H24.4062C22.5957 11.875 21.125 13.3475 21.125 15.1562V33.9062C21.125 34.6809 20.4939 35.3125 19.7188 35.3125C18.9436 35.3125 18.3125 34.6797 18.3125 33.9062V16.5625C18.3125 15.7861 17.6826 15.1562 16.9062 15.1562C16.1299 15.1562 15.5 15.7861 15.5 16.5625V33.9062C15.5 36.2324 17.3926 38.125 19.7188 38.125H40.3438C43.1873 38.125 45.5 35.8123 45.5 32.9688V15.1562C45.5 13.3475 44.0293 11.875 42.2188 11.875ZM42.6875 32.9688C42.6875 34.2613 41.6363 35.3125 40.3438 35.3125H23.6973C23.8496 34.873 23.9375 34.3984 23.9375 33.9062V15.1562C23.9375 14.8981 24.1481 14.6875 24.4062 14.6875H42.2188C42.4769 14.6875 42.6875 14.8981 42.6875 15.1562V32.9688ZM30.9688 25.9375H27.2188C26.4453 25.9375 25.8125 26.5703 25.8125 27.3438C25.8125 28.1172 26.4453 28.75 27.2188 28.75H30.9688C31.748 28.75 32.375 28.123 32.375 27.3438C32.375 26.5645 31.748 25.9375 30.9688 25.9375ZM39.4062 25.9375H35.6562C34.8828 25.9375 34.25 26.5703 34.25 27.3438C34.25 28.1172 34.8828 28.75 35.6562 28.75H39.4062C40.1826 28.75 40.8125 28.1201 40.8125 27.3438C40.8125 26.5674 40.1855 25.9375 39.4062 25.9375ZM30.9688 30.625H27.2188C26.4424 30.625 25.8125 31.2549 25.8125 32.0312C25.8125 32.8076 26.4424 33.4375 27.2188 33.4375H30.9688C31.7451 33.4375 32.375 32.8076 32.375 32.0312C32.375 31.2549 31.748 30.625 30.9688 30.625ZM39.4062 30.625H35.6562C34.8828 30.625 34.25 31.2578 34.25 32.0312C34.25 32.8047 34.8799 33.4375 35.6562 33.4375H39.4062C40.1826 33.4375 40.8125 32.8076 40.8125 32.0312C40.8125 31.2549 40.1855 30.625 39.4062 30.625ZM38.9375 16.5625H27.6875C26.6521 16.5625 25.8125 17.4021 25.8125 18.4375V22.1875C25.8125 23.2229 26.6521 24.0625 27.6875 24.0625H38.9375C39.9729 24.0625 40.8125 23.2229 40.8125 22.1875V18.4375C40.8125 17.4004 39.9746 16.5625 38.9375 16.5625Z" fill="white"/>
</g>
</g>
<defs>
<filter id="filter0_d_26_105" x="0" y="0.5" width="61" height="56" filterUnits="userSpaceOnUse" color-interpolation-filters="sRGB">
<feFlood flood-opacity="0" result="BackgroundImageFix"/>
<feColorMatrix in="SourceAlpha" type="matrix" values="0 0 0 0 0 0 0 0 0 0 0 0 0 0 0 0 0 0 127 0" result="hardAlpha"/>
<feOffset dy="3.5"/>
<feGaussianBlur stdDeviation="2.75"/>
<feColorMatrix type="matrix" values="0 0 0 0 0 0 0 0 0 0 0 0 0 0 0 0 0 0 0.02 0"/>
<feBlend mode="normal" in2="BackgroundImageFix" result="effect1_dropShadow_26_105"/>
<feBlend mode="normal" in="SourceGraphic" in2="effect1_dropShadow_26_105" result="shape"/>
</filter>
<clipPath id="clip0_26_105">
<rect width="30" height="30" fill="white" transform="translate(15.5 10)"/>
</clipPath>
</defs>
</svg>
