<svg width="26" height="14" viewBox="0 0 26 14" fill="none" xmlns="http://www.w3.org/2000/svg">
<path d="M23.9372 0.601563H17.6872C17.2728 0.601563 16.8754 0.766183 16.5823 1.05921C16.2893 1.35223 16.1247 1.74966 16.1247 2.16406C16.1247 2.57846 16.2893 2.97589 16.5823 3.26892C16.8754 3.56194 17.2728 3.72656 17.6872 3.72656H20.1652L14.5622 9.32958L9.41694 4.18432C9.27189 4.0392 9.09966 3.92408 8.91011 3.84554C8.72056 3.76699 8.51738 3.72657 8.3122 3.72657C8.10702 3.72657 7.90384 3.76699 7.71429 3.84554C7.52473 3.92408 7.35251 4.0392 7.20746 4.18432L0.95746 10.4343C0.665811 10.7276 0.502356 11.1246 0.502931 11.5382C0.503507 11.9518 0.668066 12.3483 0.96053 12.6407C1.25299 12.9332 1.64949 13.0978 2.0631 13.0983C2.47671 13.0989 2.87366 12.9355 3.16694 12.6438L8.3122 7.49854L13.4575 12.6438C13.6025 12.7889 13.7747 12.904 13.9643 12.9826C14.1538 13.0611 14.357 13.1016 14.5622 13.1016C14.7674 13.1016 14.9706 13.0611 15.1601 12.9826C15.3497 12.904 15.5219 12.7889 15.6669 12.6438L22.3747 5.93604V8.41406C22.3747 8.82846 22.5393 9.22589 22.8323 9.51892C23.1254 9.81194 23.5228 9.97656 23.9372 9.97656C24.3516 9.97656 24.749 9.81194 25.0421 9.51892C25.3351 9.22589 25.4997 8.82846 25.4997 8.41406V2.16406C25.4998 1.95884 25.4595 1.75561 25.381 1.56598C25.3025 1.37636 25.1874 1.20406 25.0423 1.05895C24.8972 0.913834 24.7249 0.798746 24.5353 0.720264C24.3457 0.641782 24.1424 0.601446 23.9372 0.601563Z" fill="white"/>
</svg>
