<svg width="30" height="30" viewBox="0 0 30 30" fill="none" xmlns="http://www.w3.org/2000/svg">
<path d="M24.7656 4H9.92188C8.41309 4 7.1875 5.23406 7.1875 6.75V22.4643C7.1875 23.1135 6.66162 23.6429 6.01562 23.6429C5.36963 23.6429 4.84375 23.1125 4.84375 22.4643V7.92857C4.84375 7.2779 4.31885 6.75 3.67188 6.75C3.0249 6.75 2.5 7.2779 2.5 7.92857V22.4643C2.5 24.4138 4.07715 26 6.01562 26H23.2031C25.5728 26 27.5 24.0617 27.5 21.6786V6.75C27.5 5.23406 26.2744 4 24.7656 4ZM25.1562 21.6786C25.1562 22.7619 24.2803 23.6429 23.2031 23.6429H9.33105C9.45801 23.2746 9.53125 22.8768 9.53125 22.4643V6.75C9.53125 6.53363 9.70674 6.35714 9.92188 6.35714H24.7656C24.9808 6.35714 25.1562 6.53363 25.1562 6.75V21.6786ZM15.3906 15.7857H12.2656C11.6211 15.7857 11.0938 16.3161 11.0938 16.9643C11.0938 17.6125 11.6211 18.1429 12.2656 18.1429H15.3906C16.04 18.1429 16.5625 17.6174 16.5625 16.9643C16.5625 16.3112 16.04 15.7857 15.3906 15.7857ZM22.4219 15.7857H19.2969C18.6523 15.7857 18.125 16.3161 18.125 16.9643C18.125 17.6125 18.6523 18.1429 19.2969 18.1429H22.4219C23.0688 18.1429 23.5938 17.615 23.5938 16.9643C23.5938 16.3136 23.0713 15.7857 22.4219 15.7857ZM15.3906 19.7143H12.2656C11.6187 19.7143 11.0938 20.2422 11.0938 20.8929C11.0938 21.5435 11.6187 22.0714 12.2656 22.0714H15.3906C16.0376 22.0714 16.5625 21.5435 16.5625 20.8929C16.5625 20.2422 16.04 19.7143 15.3906 19.7143ZM22.4219 19.7143H19.2969C18.6523 19.7143 18.125 20.2446 18.125 20.8929C18.125 21.5411 18.6499 22.0714 19.2969 22.0714H22.4219C23.0688 22.0714 23.5938 21.5435 23.5938 20.8929C23.5938 20.2422 23.0713 19.7143 22.4219 19.7143ZM22.0312 7.92857H12.6562C11.7935 7.92857 11.0938 8.63228 11.0938 9.5V12.6429C11.0938 13.5106 11.7935 14.2143 12.6562 14.2143H22.0312C22.894 14.2143 23.5938 13.5106 23.5938 12.6429V9.5C23.5938 8.6308 22.8955 7.92857 22.0312 7.92857Z" fill="white"/>
</svg>
