<svg width="22" height="22" viewBox="0 0 22 22" fill="none" xmlns="http://www.w3.org/2000/svg">
<path d="M17.4374 15.5622C17.0081 15.1509 16.5902 14.7279 16.1843 14.2935C15.8433 13.947 15.638 13.6949 15.638 13.6949L13.0713 12.4693C14.0989 11.3039 14.666 9.80366 14.6663 8.24992C14.6663 4.7125 11.788 1.83325 8.24967 1.83325C4.71134 1.83325 1.83301 4.7125 1.83301 8.24992C1.83301 11.7873 4.71134 14.6666 8.24967 14.6666C9.86576 14.6666 11.3388 14.0616 12.4691 13.0725L13.6947 15.6392C13.6947 15.6392 13.9468 15.8445 14.2933 16.1855C14.648 16.5183 15.1146 16.9683 15.5619 17.4386L16.8068 18.7146L17.3604 19.3068L19.3047 17.3625L18.7125 16.8088C18.3651 16.4678 17.9013 16.015 17.4374 15.5622ZM8.24967 12.8333C5.72242 12.8333 3.66634 10.7772 3.66634 8.24992C3.66634 5.72267 5.72242 3.66659 8.24967 3.66659C10.7769 3.66659 12.833 5.72267 12.833 8.24992C12.833 10.7772 10.7769 12.8333 8.24967 12.8333Z" fill="white"/>
</svg>
